<svg xmlns="http://www.w3.org/2000/svg" viewBox="0 -0.5 97 96" shape-rendering="crispEdges">
<metadata>Asset Processed by OpenRPG</metadata>
<path stroke="#0faad0" d="M0 0h1" />
<path stroke="#019cc2" d="M1 0h1" />
<path stroke="#06a1c7" d="M2 0h1" />
<path stroke="#1eb8df" d="M3 0h1" />
<path stroke="#30cbf1" d="M4 0h1" />
<path stroke="#2ec9ef" d="M5 0h1" />
<path stroke="#2dc8ee" d="M6 0h1" />
<path stroke="#27c2e8" d="M7 0h1" />
<path stroke="#0ca7cd" d="M8 0h1M0 83h1" />
<path stroke="#006d87" d="M9 0h1M12 1h1" />
<path stroke="#004e61" d="M10 0h1" />
<path stroke="#005367" d="M11 0h1" />
<path stroke="#005063" d="M12 0h1" />
<path stroke="#00566b" d="M13 0h1" />
<path stroke="#006c86" d="M14 0h1" />
<path stroke="#007490" d="M15 0h1M2 1h1" />
<path stroke="#007795" d="M16 0h1" />
<path stroke="#007895" d="M17 0h1" />
<path stroke="#007694" d="M18 0h1" />
<path stroke="#0086a8" d="M19 0h1" />
<path stroke="#0092b5" d="M20 0h1M14 1h1" />
<path stroke="#008fb2" d="M21 0h1M4 1h1" />
<path stroke="#0497b9" d="M22 0h1" />
<path stroke="#1d91ac" d="M23 0h1" />
<path stroke="#395d66" d="M24 0h1M73 1h1" />
<path stroke="#424242" d="M25 0h1M33 0h1M55 0h1M32 1h1M42 1h1M50 1h2M66 1h1M70 1h1M26 2h1M28 2h1M42 2h1M45 2h1M47 2h1M55 2h2M61 2h3M68 2h1M27 3h1M29 3h2M33 3h1M49 3h1M65 3h1M26 4h1M33 4h1M41 4h1M43 4h1M66 4h1M22 5h1M24 5h1M31 5h2M34 5h2M43 5h1M46 5h1M50 5h1M53 5h1M56 5h1M66 5h1M71 5h2M75 5h1M20 6h1M25 6h1M34 6h1M42 6h1M51 6h1M67 6h1M73 6h1M27 7h1M32 7h1M34 7h1M36 7h1M43 7h1M49 7h1M51 7h1M54 7h1M65 7h3M71 7h1M75 7h1M18 8h1M21 8h1M23 8h1M30 8h2M52 8h1M63 8h1M18 9h1M31 9h1M46 9h1M51 9h1M62 9h1M71 9h1M80 9h1M27 10h1M42 10h1M45 10h1M73 10h1M27 11h1M38 11h1M52 11h1M56 11h1M58 11h1M66 11h1M72 11h1M81 11h1M26 12h1M29 12h1M38 12h2M43 12h1M54 12h1M68 12h1M81 12h2M14 13h1M21 13h1M24 13h2M33 13h1M36 13h2M40 13h1M43 13h1M46 13h2M49 13h1M53 13h1M57 13h1M70 13h1M73 13h1M76 13h2M18 14h1M20 14h1M23 14h1M25 14h1M31 14h1M37 14h2M41 14h1M43 14h1M45 14h3M49 14h1M54 14h1M58 14h3M67 14h1M81 14h1M13 15h1M15 15h1M19 15h1M21 15h1M23 15h2M37 15h1M42 15h1M45 15h1M56 15h1M60 15h1M62 15h1M14 16h1M19 16h1M24 16h2M27 16h1M31 16h2M55 16h2M60 16h1M72 16h1M76 16h1M83 16h1M17 17h1M23 17h1M32 17h1M42 17h1M44 17h1M57 17h1M61 17h1M66 17h1M72 17h1M77 17h1M88 17h1M16 18h1M23 18h1M28 18h1M32 18h1M44 18h1M48 18h1M63 18h1M65 18h1M67 18h1M69 18h1M76 18h1M79 18h2M82 18h1M13 19h1M22 19h1M24 19h1M34 19h1M36 19h1M38 19h1M49 19h2M59 19h1M61 19h2M68 19h2M74 19h1M78 19h1M86 19h1M88 19h1M18 20h1M20 20h2M27 20h1M34 20h1M42 20h3M57 20h1M59 20h1M70 20h3M81 20h1M86 20h1M8 21h1M17 21h1M26 21h1M33 21h1M48 21h1M69 21h3M73 21h1M78 21h1M88 21h1M8 22h1M10 22h1M33 22h1M47 22h1M69 22h3M77 22h1M86 22h1M88 22h1M92 22h1M14 23h1M36 23h1M61 23h1M64 23h1M66 23h1M88 23h1M90 23h3M94 23h1M36 24h1M61 24h2M79 24h4M87 24h2M90 24h1M16 25h1M70 25h1M91 25h1M26 26h1M34 26h1M74 26h1M86 26h2" />
<path stroke="#434343" d="M26 0h1M28 0h5M35 0h5M41 0h3M45 0h2M48 0h1M50 0h3M54 0h1M56 0h8M65 0h2M68 0h4M26 1h2M31 1h1M34 1h2M37 1h5M44 1h6M53 1h12M68 1h2M72 1h1M24 2h2M27 2h1M30 2h3M34 2h4M39 2h3M48 2h3M54 2h1M57 2h4M64 2h4M70 2h4M23 3h3M28 3h1M31 3h1M34 3h1M36 3h6M44 3h5M50 3h1M53 3h2M57 3h3M61 3h4M66 3h1M68 3h7M22 4h4M28 4h1M31 4h2M34 4h7M42 4h1M45 4h1M47 4h4M52 4h4M57 4h3M61 4h5M68 4h7M21 5h1M26 5h4M33 5h1M36 5h5M42 5h1M44 5h2M47 5h3M52 5h1M54 5h2M58 5h2M61 5h5M68 5h3M76 5h1M21 6h1M23 6h1M26 6h1M28 6h2M31 6h1M35 6h6M44 6h2M48 6h3M52 6h13M69 6h2M74 6h1M76 6h2M19 7h1M21 7h2M24 7h3M29 7h3M35 7h1M38 7h3M42 7h1M45 7h2M48 7h1M50 7h1M53 7h1M55 7h10M68 7h1M70 7h1M72 7h1M76 7h3M20 8h1M24 8h3M29 8h1M36 8h5M42 8h1M44 8h1M46 8h1M48 8h4M54 8h6M61 8h2M64 8h2M69 8h7M77 8h3M17 9h1M19 9h5M25 9h1M29 9h2M38 9h2M41 9h1M43 9h3M48 9h1M50 9h1M53 9h9M63 9h2M69 9h1M73 9h6M16 10h2M21 10h1M24 10h1M29 10h3M35 10h1M37 10h5M43 10h2M47 10h1M49 10h2M52 10h2M55 10h1M58 10h2M62 10h2M65 10h1M68 10h2M72 10h1M74 10h8M15 11h2M19 11h1M24 11h2M28 11h2M34 11h2M39 11h8M50 11h1M54 11h2M57 11h1M59 11h1M62 11h4M68 11h1M73 11h2M76 11h5M82 11h1M15 12h1M20 12h2M23 12h3M34 12h1M40 12h2M49 12h2M53 12h1M57 12h8M66 12h2M69 12h1M72 12h2M76 12h2M79 12h2M13 13h1M20 13h1M23 13h1M27 13h1M32 13h1M38 13h2M56 13h1M60 13h4M66 13h1M68 13h1M71 13h2M78 13h5M84 13h1M15 14h1M24 14h1M30 14h1M32 14h1M36 14h1M39 14h2M44 14h1M48 14h1M55 14h3M62 14h5M82 14h2M85 14h1M11 15h1M22 15h1M25 15h3M29 15h1M32 15h1M38 15h1M41 15h1M55 15h1M61 15h1M63 15h4M68 15h1M70 15h1M74 15h2M80 15h2M83 15h2M10 16h1M12 16h2M38 16h6M61 16h7M69 16h1M71 16h1M74 16h1M82 16h1M84 16h1M10 17h4M20 17h2M24 17h2M27 17h1M31 17h1M36 17h5M45 17h1M62 17h4M67 17h1M70 17h1M76 17h1M86 17h2M14 18h1M21 18h2M24 18h1M27 18h1M34 18h1M36 18h3M57 18h2M61 18h1M66 18h1M70 18h3M78 18h1M86 18h2M14 19h1M19 19h3M27 19h1M42 19h3M48 19h1M60 19h1M67 19h1M71 19h3M75 19h3M80 19h1M83 19h1M87 19h1M14 20h3M23 20h1M28 20h1M32 20h1M36 20h2M58 20h1M60 20h2M65 20h1M69 20h1M73 20h2M79 20h2M87 20h1M91 20h1M9 21h1M18 21h1M24 21h1M46 21h2M57 21h1M59 21h1M77 21h1M79 21h3M86 21h2M89 21h4M9 22h1M14 22h1M23 22h1M57 22h1M80 22h3M85 22h1M87 22h1M90 22h1M23 23h2M33 23h2M70 23h1M81 23h1M83 23h1M16 24h1M27 24h2M41 24h1M70 24h1M91 24h2M27 25h1M42 25h1M79 25h1M94 25h1M48 26h1M79 26h1M48 27h1" />
<path stroke="#3e403e" d="M27 0h1M64 0h1M28 1h1M56 3h1M56 4h1M30 5h1M65 6h1M35 8h1M67 8h1M40 9h1M51 10h1M22 11h1M27 12h2M26 13h1M50 13h1M65 13h1M74 13h1M69 14h2M79 14h1M18 15h1M28 15h1M31 15h1M43 15h2M53 15h1M76 15h1M36 16h2M87 16h1M15 17h1M18 17h1M28 17h1M33 17h1M58 17h1M73 17h1M78 17h2M26 18h1M31 18h1M12 19h1M16 19h1M25 19h1M89 19h1M11 20h1M24 20h1M76 20h1M83 20h1M16 21h1M19 21h1M61 21h1M75 21h1M18 22h1M34 22h1M54 22h1M60 22h1M63 22h1M66 22h1M74 22h1M83 22h1M17 23h1M75 23h1M93 23h1M23 24h1M34 24h1M67 24h1M77 24h1M83 24h1M47 25h1M66 25h1M42 26h1M75 26h1M78 26h1M83 26h2M93 26h1M87 27h1M74 31h1" />
<path stroke="#434444" d="M34 0h1M44 0h1M47 0h1M49 0h1M53 0h1M25 1h1M30 1h1M33 1h1M36 1h1M43 1h1M65 1h1M71 1h1M33 2h1M38 2h1M43 2h1M53 2h1M69 2h1M26 3h1M32 3h1M35 3h1M52 3h1M60 3h1M67 3h1M27 4h1M46 4h1M51 4h1M60 4h1M75 4h1M25 5h1M51 5h1M57 5h1M60 5h1M22 6h1M24 6h1M27 6h1M68 6h1M71 6h2M75 6h1M20 7h1M37 7h1M44 7h1M69 7h1M19 8h1M43 8h1M45 8h1M60 8h1M76 8h1M24 9h1M26 9h1M28 9h1M35 9h1M37 9h1M42 9h1M47 9h1M49 9h1M65 9h1M70 9h1M72 9h1M79 9h1M20 10h1M25 10h1M28 10h1M34 10h1M48 10h1M54 10h1M56 10h2M64 10h1M47 11h1M49 11h1M51 11h1M53 11h1M67 11h1M69 11h1M56 12h1M65 12h1M70 12h1M78 12h1M83 12h1M31 13h1M41 13h2M67 13h1M83 13h1M19 14h1M27 14h2M42 14h1M68 14h1M84 14h1M14 15h1M54 15h1M67 15h1M69 15h1M77 15h1M82 15h1M11 16h1M21 16h1M23 16h1M35 16h1M68 16h1M75 16h1M16 17h1M19 17h1M22 17h1M15 18h1M17 18h1M20 18h1M25 18h1M39 18h1M62 18h1M77 18h1M18 19h1M28 19h1M35 19h1M37 19h1M58 19h1M70 19h1M79 19h1M17 20h1M19 20h1M77 20h2M88 20h1M90 20h1M23 21h1M42 21h1M74 21h1M82 21h1M91 22h1M26 25h1M80 25h1" />
<path stroke="#3c3d3c" d="M40 0h1M52 1h1M30 4h1M67 5h1M74 5h1M30 6h1M47 6h1M23 7h1M28 7h1M41 7h1M52 7h1M27 8h1M34 8h1M66 8h1M27 9h1M32 9h3M32 10h1M17 11h1M21 11h1M23 11h1M31 11h3M71 11h1M18 12h1M22 12h1M30 12h2M35 12h1M45 12h1M47 12h2M75 12h1M15 13h1M17 13h2M29 13h1M69 13h1M75 13h1M12 14h1M16 14h1M34 14h1M51 14h3M71 14h2M74 14h3M12 15h1M16 15h2M30 15h1M51 15h1M58 15h2M73 15h1M78 15h2M85 15h1M17 16h2M51 16h1M53 16h1M57 16h1M59 16h1M81 16h1M29 17h1M34 17h1M48 17h1M55 17h1M59 17h1M68 17h1M74 17h1M80 17h1M10 18h1M12 18h1M30 18h1M35 18h1M40 18h2M49 18h2M53 18h1M64 18h1M74 18h1M85 18h1M7 19h1M10 19h1M31 19h3M39 19h2M51 19h1M64 19h1M81 19h1M7 20h1M25 20h2M40 20h1M7 21h1M11 21h1M25 21h1M28 21h1M32 21h1M34 21h3M43 21h1M67 21h1M83 21h1M22 22h1M25 22h4M30 22h1M35 22h1M41 22h1M75 22h1M78 22h1M89 22h1M93 22h1M3 23h1M6 23h2M13 23h1M22 23h1M25 23h4M30 23h1M54 23h1M63 23h1M74 23h1M76 23h1M2 24h2M5 24h1M7 24h1M10 24h1M13 24h2M17 24h1M25 24h2M35 24h1M42 24h1M46 24h1M59 24h1M63 24h1M65 24h1M68 24h1M75 24h2M78 24h1M93 24h1M7 25h1M14 25h1M24 25h1M43 25h1M58 25h2M63 25h1M68 25h1M74 25h1M82 25h1M86 25h1M89 25h1M95 25h1M6 26h2M11 26h1M16 26h1M20 26h2M33 26h1M43 26h1M56 26h1M65 26h1M69 26h2M80 26h1M90 26h1M92 26h1M96 26h1M7 27h1M9 27h2M17 27h1M20 27h2M25 27h2M33 27h1M35 27h1M44 27h3M57 27h1M60 27h1M64 27h1M68 27h1M73 27h2M77 27h1M81 27h1M83 27h1M85 27h1M91 27h1M96 27h1M8 28h1M10 28h1M16 28h2M22 28h1M48 28h1M62 28h2M74 28h1M80 28h1M82 28h1M90 28h3M10 29h1M24 29h1M60 29h2M63 29h2M70 29h2M73 29h2M77 29h1M82 29h1M86 29h5M24 30h1M59 30h2M73 30h3M77 30h1M79 30h2M86 30h1M88 30h2M91 30h1M73 31h1M75 31h2M79 31h1M89 31h1M77 32h2" />
<path stroke="#3f4140" d="M67 0h1M67 1h1M46 2h1M51 2h2M42 3h1M51 3h1M55 3h1M44 4h1M23 5h1M41 5h1M32 6h2M66 6h1M47 7h1M32 8h1M41 8h1M47 8h1M68 8h1M36 9h1M52 9h1M66 9h1M68 9h1M18 10h2M26 10h1M66 10h1M70 10h2M18 11h1M26 11h1M30 11h1M48 11h1M70 11h1M75 11h1M14 12h1M19 12h1M32 12h2M52 12h1M55 12h1M71 12h1M74 12h1M19 13h1M28 13h1M30 13h1M35 13h1M44 13h1M58 13h2M13 14h1M17 14h1M21 14h1M26 14h1M33 14h1M61 14h1M77 14h1M80 14h1M20 15h1M35 15h1M39 15h2M48 15h2M52 15h1M57 15h1M71 15h1M15 16h2M20 16h1M22 16h1M26 16h1M34 16h1M44 16h2M48 16h1M70 16h1M73 16h1M79 16h1M35 17h1M41 17h1M43 17h1M60 17h1M69 17h1M71 17h1M82 17h1M85 17h1M13 18h1M18 18h2M33 18h1M42 18h2M59 18h2M68 18h1M73 18h1M88 18h2M11 19h1M15 19h1M57 19h1M65 19h2M82 19h1M13 20h1M33 20h1M50 20h1M68 20h1M75 20h1M82 20h1M13 21h3M22 21h1M41 21h1M58 21h1M60 21h1M65 21h1M13 22h1M15 22h1M24 22h1M32 22h1M36 22h1M64 22h2M68 22h1M79 22h1M5 23h1M15 23h1M29 23h1M32 23h1M35 23h1M37 23h1M47 23h1M62 23h1M65 23h1M67 23h1M80 23h1M87 23h1M89 23h1M24 24h1M29 24h2M55 24h1M66 24h1M71 24h1M94 24h1M28 25h1M62 25h1M77 25h2M92 25h2M27 26h1M35 26h2M44 26h1M47 26h1M47 27h1M71 27h1M75 27h1M82 27h1" />
<path stroke="#3d5f67" d="M72 0h1" />
<path stroke="#2d96ae" d="M73 0h1" />
<path stroke="#24bde1" d="M74 0h1" />
<path stroke="#21bee4" d="M75 0h2M88 0h1M95 2h1M96 3h1M0 4h1M2 93h1M4 95h1" />
<path stroke="#1bb8de" d="M77 0h1M96 2h1" />
<path stroke="#19b6dc" d="M78 0h1M7 93h1" />
<path stroke="#1fbce2" d="M79 0h1M87 1h3M0 88h1M0 89h1M0 92h1M86 94h1" />
<path stroke="#22bfe5" d="M80 0h2M86 1h1M90 1h1M0 90h1" />
<path stroke="#1dbae0" d="M82 0h1M84 0h1M93 0h1M91 1h1M1 3h1" />
<path stroke="#15b2d8" d="M83 0h1M94 0h1M78 1h1M95 1h1" />
<path stroke="#20bde3" d="M85 0h1M89 0h1M0 3h1" />
<path stroke="#24c1e7" d="M86 0h2M96 4h1" />
<path stroke="#23c0e6" d="M90 0h1M2 3h1M0 91h1M5 95h1" />
<path stroke="#29c6ec" d="M91 0h1M84 1h2M0 11h1M14 95h1" />
<path stroke="#26c3e9" d="M92 0h1M0 8h1M96 9h1M96 10h1M9 93h1M2 94h1" />
<path stroke="#12afd5" d="M95 0h1M81 1h1" />
<path stroke="#0eabd1" d="M96 0h1" />
<path stroke="#009ac1" d="M0 1h1" />
<path stroke="#00657f" d="M1 1h1" />
<path stroke="#0089aa" d="M3 1h1M8 1h1" />
<path stroke="#0091b4" d="M5 1h1" />
<path stroke="#0093b9" d="M6 1h1M0 18h1" />
<path stroke="#0094b8" d="M7 1h1M90 95h1" />
<path stroke="#007996" d="M9 1h1" />
<path stroke="#00708d" d="M10 1h1" />
<path stroke="#00718c" d="M11 1h1M17 1h1" />
<path stroke="#00637b" d="M13 1h1" />
<path stroke="#3cd6fb" d="M15 1h1" />
<path stroke="#0ba5ca" d="M16 1h1" />
<path stroke="#007491" d="M18 1h1" />
<path stroke="#0089a9" d="M19 1h1" />
<path stroke="#0297bd" d="M20 1h1" />
<path stroke="#049abd" d="M21 1h1" />
<path stroke="#168ba8" d="M22 1h1" />
<path stroke="#3b5c64" d="M23 1h1" />
<path stroke="#414141" d="M24 1h1M17 3h6M75 3h12M89 3h1M91 3h2M8 4h1M17 4h2M20 4h2M76 4h14M91 4h2M17 5h4M77 5h6M84 5h5M91 5h2M19 6h1M78 6h5M84 6h9M10 7h2M13 7h6M79 7h7M88 7h5M10 8h4M15 8h3M80 8h8M89 8h4M3 9h1M10 9h3M15 9h2M81 9h12M12 10h2M82 10h4M88 10h5M13 11h2M83 11h1M85 11h2M89 11h1M91 11h2M13 12h1M84 12h2M88 12h2M91 12h1M8 13h4M88 13h2M8 14h1M89 14h1M92 14h1M6 15h3M10 15h1M89 15h1M88 16h2M89 17h2M5 18h1M90 18h2M51 28h1" />
<path stroke="#3a3a3a" d="M29 1h1M37 11h1M42 12h1M44 12h1M64 13h1M87 15h1M90 15h2M33 16h1M80 16h1M83 18h1M41 19h1M62 20h1M64 20h1M84 20h1M64 21h1M66 21h1M72 21h1M12 22h1M62 22h1M67 22h1M69 23h1M79 23h1M9 24h1M73 24h1M95 24h1M36 25h1M56 25h1M75 25h2M85 25h1M88 25h1M9 26h1M67 26h1M71 26h1M13 27h1M36 27h1M69 27h1M89 27h1M25 28h1M44 28h1M60 28h1M89 28h1M26 29h1M39 29h1M75 29h2M78 29h1M78 31h1M68 33h1M73 33h1" />
<path stroke="#299ab5" d="M74 1h1" />
<path stroke="#1fbadf" d="M75 1h1" />
<path stroke="#1ebbe1" d="M76 1h1M4 6h1M0 12h1M90 89h1M0 93h1M87 94h1M94 94h1" />
<path stroke="#17b4da" d="M77 1h1M0 87h1M89 94h1M7 95h1" />
<path stroke="#1ab7dd" d="M79 1h2M1 93h1M6 95h1M95 95h1" />
<path stroke="#04a1c7" d="M82 1h1" />
<path stroke="#0ca9cf" d="M83 1h1M8 93h1" />
<path stroke="#14b1d7" d="M92 1h1M85 95h1" />
<path stroke="#0facd2" d="M93 1h1M0 84h1" />
<path stroke="#0daad0" d="M94 1h1" />
<path stroke="#16b3d9" d="M96 1h1" />
<path stroke="#11abd2" d="M0 2h1" />
<path stroke="#0099be" d="M1 2h1" />
<path stroke="#04a0c6" d="M2 2h1M1 12h1" />
<path stroke="#07a4c9" d="M3 2h1" />
<path stroke="#07a4ca" d="M4 2h1" />
<path stroke="#1098b9" d="M5 2h1" />
<path stroke="#1194b3" d="M6 2h1" />
<path stroke="#1397b6" d="M7 2h1" />
<path stroke="#169bbc" d="M8 2h1" />
<path stroke="#189fc0" d="M9 2h1" />
<path stroke="#19a3c5" d="M10 2h1" />
<path stroke="#199cbc" d="M11 2h1" />
<path stroke="#18a4c6" d="M12 2h1" />
<path stroke="#10abd1" d="M13 2h1" />
<path stroke="#29c4ea" d="M14 2h1" />
<path stroke="#6ddffa" d="M15 2h1" />
<path stroke="#277588" d="M16 2h1" />
<path stroke="#2d4f58" d="M17 2h1" />
<path stroke="#2b525b" d="M18 2h1" />
<path stroke="#2b5863" d="M19 2h1" />
<path stroke="#2b5e6a" d="M20 2h1" />
<path stroke="#2c5c68" d="M21 2h1" />
<path stroke="#335158" d="M22 2h1" />
<path stroke="#3e3e3e" d="M23 2h1M19 4h1M17 6h1M13 9h1M15 10h1M87 11h1M92 12h1M5 17h1" />
<path stroke="#3e3e3d" d="M29 2h1M44 2h1M29 4h1M67 4h1M73 5h1M41 6h1M46 6h1M33 7h1M73 7h2M22 8h1M53 8h1M22 10h1M46 10h1M67 10h1M36 11h1M37 12h1M34 13h1M45 13h1M48 13h1M54 13h2M35 14h1M50 14h1M78 14h1M72 15h1M28 16h1M85 16h2M9 17h1M14 17h1M26 17h1M30 17h1M47 17h1M56 17h1M75 17h1M84 17h1M8 18h1M11 18h1M29 18h1M23 19h1M26 19h1M85 19h1M6 20h1M8 20h1M12 20h1M22 20h1M41 20h1M49 20h1M67 20h1M85 20h1M10 21h1M31 21h1M40 21h1M68 21h1M76 21h1M11 22h1M31 22h1M42 22h1M76 22h1M19 23h1M68 23h1M71 23h1M77 23h1M82 23h1M33 24h1M6 25h1M25 25h1M34 25h1M41 25h1M45 25h2M64 25h2M71 25h1M87 25h1M90 25h1M17 26h1M45 26h1M85 26h1M91 26h1M34 27h1M43 27h1M21 28h1M42 28h1M69 28h1M83 28h1M87 28h2M76 30h1M78 30h1M90 30h1M77 31h1M80 31h1" />
<path stroke="#3b565c" d="M74 2h1" />
<path stroke="#376571" d="M75 2h1" />
<path stroke="#356a76" d="M76 2h1" />
<path stroke="#336874" d="M77 2h1M91 2h1" />
<path stroke="#336774" d="M78 2h1M80 2h1" />
<path stroke="#346875" d="M79 2h1" />
<path stroke="#2f6370" d="M81 2h1" />
<path stroke="#2b5d69" d="M82 2h1" />
<path stroke="#2a5f6b" d="M83 2h1" />
<path stroke="#376b78" d="M84 2h1M86 2h1" />
<path stroke="#396d7a" d="M85 2h1" />
<path stroke="#366a77" d="M87 2h3" />
<path stroke="#366b77" d="M90 2h1" />
<path stroke="#2f606c" d="M92 2h1" />
<path stroke="#2a7081" d="M93 2h1" />
<path stroke="#2cb7d9" d="M94 2h1" />
<path stroke="#25afd1" d="M3 3h1" />
<path stroke="#3a5b63" d="M4 3h1" />
<path stroke="#3b5156" d="M5 3h1" />
<path stroke="#3c575e" d="M6 3h1" />
<path stroke="#39616b" d="M7 3h1" />
<path stroke="#39636e" d="M8 3h1" />
<path stroke="#3a5d65" d="M9 3h1" />
<path stroke="#3c565c" d="M10 3h1" />
<path stroke="#38626c" d="M11 3h1" />
<path stroke="#337382" d="M12 3h1" />
<path stroke="#30889e" d="M13 3h1" />
<path stroke="#2fabca" d="M14 3h1" />
<path stroke="#36b3d2" d="M15 3h1" />
<path stroke="#364f54" d="M16 3h1" />
<path stroke="#3b3c3b" d="M43 3h1M28 8h1M67 9h1M23 10h1M33 10h1M36 10h1M60 10h1M20 11h1M60 11h1M16 12h2M51 12h1M51 13h2M14 14h1M22 14h1M29 14h1M73 14h1M34 15h1M36 15h1M47 15h1M29 16h2M46 16h1M49 17h1M75 18h1M81 18h1M29 19h1M84 19h1M35 20h1M48 20h1M51 20h1M89 20h1M12 21h1M27 21h1M46 22h1M61 22h1M73 22h1M4 23h1M38 23h1M60 23h1M84 23h3M4 24h1M32 24h1M37 24h2M40 24h1M44 24h1M60 24h1M64 24h1M69 24h1M84 24h2M89 24h1M3 25h1M23 25h1M29 25h1M35 25h1M37 25h1M55 25h1M69 25h1M81 25h1M83 25h2M96 25h1M3 26h1M10 26h1M46 26h1M63 26h2M66 26h1M68 26h1M81 26h2M11 27h1M18 27h1M22 27h1M24 27h1M61 27h3M65 27h1M67 27h1M70 27h1M76 27h1M90 27h1M92 27h1M20 28h1M26 28h1M64 28h2M70 28h2M73 28h1M76 28h2M17 29h1M25 29h1M59 29h1M62 29h1M72 29h1M91 29h1M94 30h1M90 31h1M73 32h1M81 40h1" />
<path stroke="#404040" d="M87 3h1M90 4h1M89 5h1M83 6h1M86 7h2M86 10h1M90 11h1M90 12h1M90 13h2M9 14h1M88 14h1M91 14h1M88 15h1M7 16h1M8 17h1M4 18h1M6 18h1M92 18h1" />
<path stroke="#3f3f3f" d="M88 3h1M90 3h1M83 5h1M18 6h1M14 9h1M87 10h1M8 11h1M8 12h1M12 13h1M87 13h1M92 13h1M10 14h1M8 16h2M6 19h1M91 19h1" />
<path stroke="#404d50" d="M93 3h1" />
<path stroke="#6ebccf" d="M94 3h1" />
<path stroke="#3ad7fd" d="M95 3h1M95 8h1M96 90h1M17 93h1M9 94h1M3 95h1" />
<path stroke="#1dbadf" d="M1 4h1" />
<path stroke="#25a7c6" d="M2 4h1" />
<path stroke="#337383" d="M3 4h1" />
<path stroke="#327484" d="M4 4h1M15 5h1" />
<path stroke="#317484" d="M5 4h1" />
<path stroke="#36626d" d="M6 4h1" />
<path stroke="#404344" d="M7 4h1M54 25h1" />
<path stroke="#3a5960" d="M9 4h1" />
<path stroke="#2d89a0" d="M10 4h1" />
<path stroke="#2c8499" d="M11 4h1" />
<path stroke="#2f7f93" d="M12 4h1" />
<path stroke="#2e8498" d="M13 4h1" />
<path stroke="#259ebc" d="M14 4h1M5 9h1" />
<path stroke="#269fbc" d="M15 4h1" />
<path stroke="#39575f" d="M16 4h1" />
<path stroke="#4b5254" d="M93 4h1" />
<path stroke="#7cb8c6" d="M94 4h1" />
<path stroke="#4ddcff" d="M95 4h1M95 19h1M96 84h1" />
<path stroke="#25c2e8" d="M0 5h1M0 6h1M0 7h1M16 95h1" />
<path stroke="#21bce2" d="M1 5h1M1 7h1" />
<path stroke="#2b8ca4" d="M2 5h1M9 5h1M2 6h1" />
<path stroke="#3d4e53" d="M3 5h1" />
<path stroke="#20b6da" d="M4 5h1" />
<path stroke="#21b0d3" d="M5 5h1" />
<path stroke="#316875" d="M6 5h1" />
<path stroke="#404445" d="M7 5h1" />
<path stroke="#37636e" d="M8 5h1" />
<path stroke="#2995af" d="M10 5h1" />
<path stroke="#2d869b" d="M11 5h1" />
<path stroke="#327787" d="M12 5h1" />
<path stroke="#327585" d="M13 5h1" />
<path stroke="#31798a" d="M14 5h1" />
<path stroke="#3d4f53" d="M16 5h1M6 8h1" />
<path stroke="#3c3c3c" d="M90 5h1M12 7h1M14 8h1M88 8h1M14 10h1M6 11h2M84 11h1M6 12h2M86 12h2M6 13h2M86 13h1M6 14h2M11 14h1M86 14h2M90 14h1M6 16h1M90 16h3M92 17h1M4 20h1M92 20h1" />
<path stroke="#4b5355" d="M93 5h1" />
<path stroke="#72b6c6" d="M94 5h1" />
<path stroke="#43daff" d="M95 5h1M95 13h1M95 14h1M95 15h1M17 94h1M95 94h1" />
<path stroke="#27c4ea" d="M96 5h1M15 95h1" />
<path stroke="#21bde2" d="M1 6h1" />
<path stroke="#3d5055" d="M3 6h1" />
<path stroke="#278da6" d="M5 6h1" />
<path stroke="#366470" d="M6 6h1" />
<path stroke="#3e4d51" d="M7 6h1" />
<path stroke="#33707f" d="M8 6h1" />
<path stroke="#317889" d="M9 6h1" />
<path stroke="#3e4c4f" d="M10 6h1" />
<path stroke="#3f4a4c" d="M11 6h1" />
<path stroke="#3e4749" d="M12 6h1" />
<path stroke="#3f4749" d="M13 6h2M8 7h2M11 10h1M5 15h1" />
<path stroke="#3f4546" d="M15 6h1" />
<path stroke="#404142" d="M16 6h1" />
<path stroke="#444545" d="M43 6h1M86 27h1" />
<path stroke="#495355" d="M93 6h1M93 7h1M93 8h1" />
<path stroke="#73b8c8" d="M94 6h1M94 7h1" />
<path stroke="#41daff" d="M95 6h1M0 10h1M96 15h1M96 79h1M96 93h1" />
<path stroke="#2dcaf0" d="M96 6h1M96 7h1M13 95h1" />
<path stroke="#298ea7" d="M2 7h1" />
<path stroke="#3e4c50" d="M3 7h1" />
<path stroke="#2793ad" d="M4 7h1" />
<path stroke="#36535a" d="M5 7h1" />
<path stroke="#288fa7" d="M6 7h1" />
<path stroke="#356c79" d="M7 7h1" />
<path stroke="#3fd9ff" d="M95 7h1M96 87h1M14 93h1M3 94h2" />
<path stroke="#20bce2" d="M1 8h1" />
<path stroke="#2791ab" d="M2 8h1" />
<path stroke="#414242" d="M3 8h1M5 8h1M46 17h1" />
<path stroke="#343c3e" d="M4 8h1" />
<path stroke="#2f8093" d="M7 8h1" />
<path stroke="#2799b4" d="M8 8h1" />
<path stroke="#37616b" d="M9 8h1" />
<path stroke="#353535" d="M33 8h1M81 17h1M9 18h1M84 18h1M8 19h2M53 19h1M63 19h1M9 20h1M30 20h1M52 20h2M4 21h2M38 21h2M52 21h1M16 22h1M19 22h1M39 22h1M59 22h1M9 23h1M18 23h1M20 23h1M39 23h2M42 23h1M44 23h1M53 23h1M72 23h2M6 24h1M11 24h2M15 24h1M22 24h1M31 24h1M39 24h1M72 24h1M1 25h1M10 25h2M20 25h1M38 25h1M12 26h1M15 26h1M23 26h1M31 26h1M55 26h1M59 26h4M72 26h2M76 26h1M89 26h1M3 27h4M12 27h1M14 27h2M23 27h1M27 27h3M32 27h1M58 27h1M72 27h1M94 27h1M0 28h2M4 28h4M13 28h3M19 28h1M29 28h6M43 28h1M46 28h2M58 28h1M66 28h3M78 28h2M84 28h2M96 28h1M3 29h3M7 29h1M9 29h1M14 29h3M19 29h1M21 29h1M23 29h1M30 29h5M38 29h1M41 29h1M43 29h3M47 29h2M66 29h1M79 29h1M83 29h2M93 29h1M95 29h2M0 30h2M4 30h3M8 30h1M11 30h1M13 30h1M15 30h2M22 30h2M26 30h1M30 30h1M33 30h4M40 30h3M45 30h1M47 30h1M65 30h1M82 30h1M84 30h2M93 30h1M95 30h2M0 31h1M2 31h3M6 31h13M21 31h1M23 31h3M27 31h3M31 31h7M40 31h5M47 31h2M50 31h1M64 31h4M81 31h7M94 31h1M96 31h1M0 32h1M2 32h4M7 32h4M12 32h9M22 32h3M27 32h3M31 32h2M34 32h2M40 32h1M42 32h2M45 32h6M64 32h2M75 32h2M83 32h10M96 32h1M1 33h1M5 33h1M7 33h4M12 33h5M18 33h1M22 33h13M39 33h2M42 33h2M45 33h2M48 33h1M74 33h3M80 33h1M83 33h1M85 33h5M91 33h3M1 34h1M3 34h2M8 34h1M11 34h4M16 34h1M18 34h1M22 34h4M28 34h3M32 34h1M35 34h1M43 34h1M47 34h1M73 34h2M79 34h2M84 34h1M88 34h1M90 34h1M92 34h1M95 34h1M0 35h2M6 35h3M10 35h2M13 35h7M21 35h7M29 35h4M35 35h2M76 35h2M79 35h1M82 35h1M87 35h6M94 35h1M96 35h1M4 36h4M9 36h3M13 36h1M15 36h5M22 36h7M32 36h1M34 36h1M36 36h4M44 36h1M70 36h2M75 36h3M80 36h1M84 36h3M91 36h2M94 36h1M5 37h6M13 37h4M18 37h1M21 37h1M23 37h1M26 37h5M32 37h1M37 37h3M50 37h1M70 37h2M74 37h1M76 37h2M81 37h2M86 37h1M88 37h1M90 37h1M93 37h1M5 38h1M7 38h1M11 38h1M15 38h1M18 38h2M21 38h1M23 38h1M25 38h5M31 38h1M44 38h2M48 38h1M51 38h1M70 38h2M74 38h3M80 38h1M86 38h1M88 38h4M96 38h1M1 39h2M8 39h4M14 39h1M17 39h2M25 39h2M28 39h1M32 39h1M35 39h4M42 39h1M45 39h1M47 39h1M52 39h1M75 39h1M79 39h1M81 39h2M85 39h5M93 39h2M96 39h1M0 40h2M6 40h6M18 40h1M25 40h1M31 40h2M36 40h1M47 40h2M73 40h1M75 40h1M78 40h1M80 40h1M82 40h1M84 40h1M88 40h1M94 40h1M6 41h3M15 41h1M30 41h3M35 41h1M51 41h2M74 41h2M79 41h2M82 41h2M87 41h1M95 41h1M5 42h1M7 42h3M29 42h2M32 42h1M37 42h1M44 42h1M48 42h1M52 42h2M82 42h1M87 42h1M90 42h2M94 42h3M9 43h3M29 43h3M38 43h2M41 43h1M46 43h1M80 43h2M86 43h2M89 43h3M93 43h1M95 43h2M8 44h1M11 44h2M15 44h1M27 44h2M30 44h2M33 44h1M37 44h2M46 44h2M75 44h2M78 44h1M80 44h1M86 44h5M95 44h1M4 45h1M7 45h8M24 45h1M26 45h2M29 45h1M31 45h2M46 45h1M74 45h1M78 45h1M84 45h2M89 45h1M4 46h1M6 46h3M12 46h1M17 46h1M24 46h3M31 46h1M33 46h1M41 46h1M45 46h1M50 46h1M6 47h2M12 47h1M18 47h2M23 47h1M25 47h3M42 47h1M6 48h2M10 48h1M15 48h1M23 48h2M27 48h1M33 48h2M42 48h1M2 49h2M14 49h2M22 49h2M1 50h3M14 50h1M18 50h1M22 50h1M25 50h1M1 51h2M14 51h2M25 51h1M1 52h1" />
<path stroke="#71b7c8" d="M94 8h1" />
<path stroke="#28c5eb" d="M96 8h1M96 11h1M17 95h1" />
<path stroke="#2bc8ee" d="M0 9h1" />
<path stroke="#1cb8de" d="M1 9h1" />
<path stroke="#2993ad" d="M2 9h1M2 87h1" />
<path stroke="#3c545a" d="M4 9h1" />
<path stroke="#3b575e" d="M6 9h1" />
<path stroke="#2c8ba2" d="M7 9h1" />
<path stroke="#1ebbe0" d="M8 9h1" />
<path stroke="#326c7a" d="M9 9h1" />
<path stroke="#4a5355" d="M93 9h1" />
<path stroke="#72b7c9" d="M94 9h1" />
<path stroke="#38d5fb" d="M95 9h1M96 89h1" />
<path stroke="#28c3e9" d="M1 10h1M18 95h1M84 95h1" />
<path stroke="#2388a1" d="M2 10h1" />
<path stroke="#3e4d50" d="M3 10h1" />
<path stroke="#279db9" d="M4 10h1" />
<path stroke="#37626d" d="M5 10h1M11 12h1" />
<path stroke="#3b3f40" d="M6 10h1M4 17h1" />
<path stroke="#3b4e53" d="M7 10h1" />
<path stroke="#3a5a62" d="M8 10h1" />
<path stroke="#3e494b" d="M9 10h1" />
<path stroke="#404546" d="M10 10h1" />
<path stroke="#393a39" d="M61 10h1M36 12h1M46 15h1M86 15h1M47 16h1M52 19h1M37 21h1M84 21h2M6 22h2M17 22h1M29 22h1M58 22h1M11 23h1M31 23h1M46 23h1M74 24h1M2 25h1M13 25h1M21 25h1M30 25h1M44 25h1M60 25h2M67 25h1M72 25h1M1 26h2M13 26h1M37 26h1M58 26h1M95 26h1M0 27h1M8 27h1M19 27h1M66 27h1M84 27h1M93 27h1M24 28h1M38 28h1M81 28h1M2 29h1M8 29h1M28 29h1M64 30h1M87 30h1M68 31h1M68 32h1M67 33h1M92 37h1" />
<path stroke="#495052" d="M93 10h1" />
<path stroke="#6faebd" d="M94 10h1" />
<path stroke="#36d2f8" d="M95 10h1" />
<path stroke="#13aed3" d="M1 11h1" />
<path stroke="#268aa2" d="M2 11h1" />
<path stroke="#3d4f54" d="M3 11h1" />
<path stroke="#23a6c6" d="M4 11h1" />
<path stroke="#3c4143" d="M5 11h1" />
<path stroke="#3e4142" d="M9 11h1M42 27h1" />
<path stroke="#306d7c" d="M10 11h1" />
<path stroke="#2f7586" d="M11 11h1" />
<path stroke="#3f4041" d="M12 11h1" />
<path stroke="#383938" d="M61 11h1M46 12h1M16 13h1M22 13h1M77 16h1M17 19h1M30 19h1M90 19h1M31 20h1M21 21h1M29 21h1M53 21h1M62 21h1M5 22h1M37 22h1M72 22h1M84 22h1M12 23h1M78 23h1M8 24h1M19 24h1M86 24h1M22 25h1M4 26h1M25 26h1M29 26h1M94 26h1M16 27h1M37 27h2M79 27h2M9 28h1M23 28h1M27 29h1M42 29h1M81 29h1M43 30h1M22 31h1M79 32h2" />
<path stroke="#3d3d3d" d="M88 11h1M85 13h1M7 17h1M91 17h1M7 18h1M5 19h1M92 19h1" />
<path stroke="#455256" d="M93 11h1" />
<path stroke="#54b5cc" d="M94 11h1" />
<path stroke="#32cff5" d="M95 11h1" />
<path stroke="#2692ab" d="M2 12h1" />
<path stroke="#395960" d="M3 12h1" />
<path stroke="#2699b4" d="M4 12h1" />
<path stroke="#3c4547" d="M5 12h1" />
<path stroke="#414243" d="M9 12h1" />
<path stroke="#395e67" d="M10 12h1" />
<path stroke="#3e3f3f" d="M12 12h1" />
<path stroke="#435559" d="M93 12h1" />
<path stroke="#4bbad5" d="M94 12h1" />
<path stroke="#37d4fa" d="M95 12h1M95 80h1M15 93h1M8 95h1" />
<path stroke="#2ecbf1" d="M96 12h1" />
<path stroke="#16b1d7" d="M0 13h1" />
<path stroke="#0eaad0" d="M1 13h1" />
<path stroke="#2495b0" d="M2 13h1" />
<path stroke="#38636e" d="M3 13h1" />
<path stroke="#2798b4" d="M4 13h1" />
<path stroke="#3a4345" d="M5 13h1M5 14h1" />
<path stroke="#445357" d="M93 13h1" />
<path stroke="#55b9d2" d="M94 13h1" />
<path stroke="#36d3f9" d="M96 13h1M3 93h1M16 93h1" />
<path stroke="#049fc5" d="M0 14h1" />
<path stroke="#13afd5" d="M1 14h1" />
<path stroke="#2697b2" d="M2 14h1" />
<path stroke="#33606b" d="M3 14h1" />
<path stroke="#289ab5" d="M4 14h1" />
<path stroke="#435356" d="M93 14h1" />
<path stroke="#55bad3" d="M94 14h1" />
<path stroke="#3dd9ff" d="M96 14h1M96 92h1M95 93h1M16 94h1M96 95h1" />
<path stroke="#05a0c6" d="M0 15h1" />
<path stroke="#12aed4" d="M1 15h1M1 86h1" />
<path stroke="#23a0bf" d="M2 15h1" />
<path stroke="#2e7c8f" d="M3 15h1" />
<path stroke="#269cb8" d="M4 15h1" />
<path stroke="#383838" d="M9 15h1M3 19h1" />
<path stroke="#363636" d="M33 15h1M50 15h1M49 16h2M83 17h1M10 20h1M29 20h1M39 20h1M30 21h1M21 22h1M8 23h1M10 23h1M56 24h1M8 25h1M12 25h1M32 25h1M14 26h1M77 26h1M78 27h1M88 27h1M27 28h1M36 28h1M59 28h1M72 28h1M75 28h1M93 28h1M95 28h1M0 29h1M6 29h1M11 29h1M13 29h1M18 29h1M20 29h1M22 29h1M35 29h1M37 29h1M46 29h1M80 29h1M85 29h1M92 29h1M94 29h1M2 30h1M7 30h1M9 30h1M14 30h1M17 30h1M20 30h2M39 30h1M44 30h1M46 30h1M48 30h1M81 30h1M83 30h1M5 31h1M19 31h1M26 31h1M49 31h1M88 31h1M92 31h1M21 32h1M25 32h1M30 32h1M33 32h1M63 32h1M66 32h1M0 33h1M2 33h1M4 33h1M6 33h1M11 33h1M17 33h1M20 33h1M41 33h1M47 33h1M49 33h1M77 33h1M84 33h1M0 34h1M7 34h1M9 34h1M15 34h1M19 34h1M21 34h1M26 34h1M31 34h1M34 34h1M42 34h1M44 34h1M46 34h1M75 34h3M85 34h1M87 34h1M94 34h1M5 35h1M9 35h1M12 35h1M28 35h1M33 35h1M37 35h1M45 35h1M70 35h1M80 35h1M83 35h1M86 35h1M95 35h1M8 36h1M12 36h1M14 36h1M30 36h1M35 36h1M79 36h1M82 36h1M87 36h2M90 36h1M93 36h1M12 37h1M17 37h1M22 37h1M25 37h1M31 37h1M36 37h1M43 37h1M75 37h1M78 37h1M89 37h1M91 37h1M9 38h2M13 38h1M17 38h1M22 38h1M38 38h1M43 38h1M81 38h1M27 39h1M29 39h1M39 39h1M46 39h1M51 39h1M74 39h1M80 39h1M90 39h1M2 40h1M24 40h1M74 40h1M79 40h1M83 40h1M0 41h1M47 41h1M76 41h1M78 41h1M88 41h1M28 42h1M41 42h1M75 42h1M77 42h1M88 42h1M92 42h1M3 43h1M16 43h1M27 43h1M83 43h1M85 43h1M88 43h1M92 43h1M94 43h1M10 44h1M16 44h1M29 44h1M50 44h1M82 44h1M85 44h1M91 44h1M93 44h1M5 45h1M15 45h1M28 45h1M30 45h1M35 45h1M49 45h1M79 45h1M83 45h1M11 46h1M13 46h1M18 46h1M29 46h1M32 46h1M34 46h1M36 46h1M42 46h1M85 46h1M10 47h1M24 47h1M35 47h1M29 48h1M56 48h1M4 49h1M4 50h1" />
<path stroke="#373737" d="M92 15h1M78 16h1M50 17h1M38 20h1M66 20h1M63 21h1M4 22h1M41 23h1M45 24h1M4 25h2M9 25h1M19 25h1M33 25h1M73 25h1M22 26h1M24 26h1M30 26h1M32 26h1M1 27h1M31 27h1M18 28h1M86 28h1M40 29h1M65 29h1M3 30h1M25 30h1M27 30h1M91 31h1M74 32h1M51 33h1M79 33h1M94 41h1" />
<path stroke="#425357" d="M93 15h1" />
<path stroke="#50bcd6" d="M94 15h1" />
<path stroke="#019bc0" d="M0 16h1" />
<path stroke="#12acd0" d="M1 16h1" />
<path stroke="#22b3d7" d="M2 16h1" />
<path stroke="#259ebb" d="M3 16h1" />
<path stroke="#2a879d" d="M4 16h1" />
<path stroke="#393f41" d="M5 16h1" />
<path stroke="#444e52" d="M52 16h1M56 23h1M72 36h1" />
<path stroke="#424a4d" d="M54 16h1M49 27h1M72 34h1" />
<path stroke="#485357" d="M58 16h1" />
<path stroke="#425459" d="M93 16h1" />
<path stroke="#4ebfda" d="M94 16h1" />
<path stroke="#49dbff" d="M95 16h1M96 78h1M10 93h1M5 94h1M96 94h1" />
<path stroke="#4adcff" d="M96 16h1" />
<path stroke="#0092b6" d="M0 17h1" />
<path stroke="#0aa4c9" d="M1 17h1" />
<path stroke="#1fa8ca" d="M2 17h1" />
<path stroke="#347484" d="M3 17h1" />
<path stroke="#3b3b3b" d="M6 17h1M5 20h1M2 23h1" />
<path stroke="#455054" d="M51 17h1M51 22h1M62 30h1M72 33h1" />
<path stroke="#608a9a" d="M52 17h1" />
<path stroke="#516b75" d="M53 17h1" />
<path stroke="#4d5c61" d="M54 17h1M48 25h1M57 26h1" />
<path stroke="#44565b" d="M93 17h1" />
<path stroke="#52bfda" d="M94 17h1" />
<path stroke="#4cdcff" d="M95 17h2M95 18h1" />
<path stroke="#009abf" d="M1 18h1" />
<path stroke="#1c88a2" d="M2 18h1" />
<path stroke="#3b4041" d="M3 18h1" />
<path stroke="#444a4c" d="M45 18h1M45 19h1" />
<path stroke="#506a74" d="M46 18h1" />
<path stroke="#4c5f67" d="M47 18h1M73 35h1" />
<path stroke="#465257" d="M51 18h1" />
<path stroke="#4d5f66" d="M52 18h1" />
<path stroke="#56717b" d="M54 18h1" />
<path stroke="#556e77" d="M55 18h1" />
<path stroke="#4d5d63" d="M56 18h1" />
<path stroke="#42555a" d="M93 18h1" />
<path stroke="#50c0db" d="M94 18h1" />
<path stroke="#4bdcff" d="M96 18h1M96 19h1M96 86h1M12 95h1" />
<path stroke="#008cad" d="M0 19h1" />
<path stroke="#0096ba" d="M1 19h1" />
<path stroke="#167d96" d="M2 19h1" />
<path stroke="#393939" d="M4 19h1M26 72h1" />
<path stroke="#587986" d="M46 19h1M40 28h1" />
<path stroke="#506973" d="M47 19h1" />
<path stroke="#55727d" d="M54 19h1" />
<path stroke="#6da5bb" d="M55 19h1" />
<path stroke="#628e9f" d="M56 19h1" />
<path stroke="#3f5358" d="M93 19h1" />
<path stroke="#4ec0dc" d="M94 19h1" />
<path stroke="#007f9d" d="M0 20h1" />
<path stroke="#0094b7" d="M1 20h1" />
<path stroke="#16809a" d="M2 20h1" />
<path stroke="#323232" d="M3 20h1" />
<path stroke="#44494a" d="M45 20h1" />
<path stroke="#444a4d" d="M46 20h1" />
<path stroke="#434a4c" d="M47 20h1M41 28h1" />
<path stroke="#55737e" d="M54 20h1" />
<path stroke="#6facc4" d="M55 20h1" />
<path stroke="#608b9c" d="M56 20h1" />
<path stroke="#343433" d="M63 20h1M38 22h1M40 22h1M53 22h1M16 23h1M45 23h1M17 25h1M31 25h1M0 26h1M5 26h1M8 26h1M19 26h1M30 27h1M59 27h1M2 28h1M11 28h1M28 28h1M35 28h1M37 28h1M12 29h1M36 29h1M10 30h1M12 30h1M18 30h2M37 30h2M49 30h1M92 30h1M20 31h1M39 31h1M46 31h1M93 31h1M6 32h1M11 32h1M26 32h1M37 32h1M41 32h1M44 32h1M67 32h1M81 32h1M3 33h1M19 33h1M21 33h1M50 33h1M90 33h1M6 34h1M10 34h1M17 34h1M27 34h1M33 34h1M45 34h1M86 34h1M89 34h1M91 34h1M93 34h1M96 34h1M4 35h1M34 35h1M44 35h1M46 35h1M85 35h1M93 35h1M21 36h1M29 36h1M31 36h1M33 36h1M49 36h1M78 36h1M89 36h1M95 36h1M11 37h1M33 37h1M40 37h3M44 37h1M48 37h2M85 37h1M6 38h1M8 38h1M12 38h1M14 38h1M36 38h2M39 38h1M42 38h1M46 38h2M78 38h1M82 38h1M87 38h1M13 39h1M43 39h2M48 39h1M78 39h1M84 39h1M95 39h1M20 40h1M35 40h1M95 40h1M25 41h1M29 41h1M40 41h1M48 41h1M50 41h1M77 41h1M84 41h1M27 42h1M31 42h1M42 42h1M45 42h1M47 42h1M74 42h1M76 42h1M81 42h1M83 42h2M93 42h1M7 43h2M28 43h1M32 43h1M37 43h1M47 43h1M75 43h1M77 43h1M82 43h1M84 43h1M4 44h2M9 44h1M49 44h1M83 44h2M94 44h1M34 45h1M37 45h2M50 45h2M80 45h1M82 45h1M10 46h1M14 46h1M27 46h1M30 46h1M35 46h1M43 46h2M49 46h1M9 47h1M11 47h1M17 47h1M34 47h1M41 47h1M12 48h1M28 48h1M35 48h1M6 49h1M15 50h1M21 50h1M24 50h1M35 50h1M0 51h1M2 52h1" />
<path stroke="#415459" d="M93 20h1" />
<path stroke="#4abed9" d="M94 20h1" />
<path stroke="#50deff" d="M95 20h2" />
<path stroke="#0084a3" d="M0 21h1" />
<path stroke="#0999be" d="M1 21h1" />
<path stroke="#227689" d="M2 21h1" />
<path stroke="#222222" d="M3 21h1M96 46h1M92 50h1M96 50h1M35 51h1M94 51h1M43 53h1M64 53h1M70 53h2M64 54h1M22 55h1M25 55h2M93 55h1M54 56h1M60 56h1M2 57h1M17 57h1M38 57h1M55 57h1M57 57h1M6 58h1M10 58h1M52 58h1M10 59h1M54 59h1M75 59h1M35 60h1M62 60h1M73 60h1M76 60h1M90 60h1M6 61h1M47 61h1M49 61h1M56 61h1M59 61h1M65 61h1M74 61h1M93 61h1M6 62h1M25 62h1M27 62h1M33 62h1M55 62h1M57 62h1M89 62h1M24 63h1M78 63h2M86 63h1M88 63h1M94 63h1M0 64h1M5 64h1M9 64h1M12 64h1M86 64h1M6 65h1M12 65h1M27 65h1M91 65h1M0 66h1M4 66h1M10 66h1M22 66h1M29 66h1M44 66h1M6 67h1M18 67h1M21 67h1M24 67h1M28 67h2M37 67h1M40 67h1M54 67h1M66 67h3M70 67h1M73 67h1M78 67h1M82 67h1M5 68h3M11 68h1M20 68h1M22 68h1M37 68h1M42 68h1M48 68h1M51 68h1M56 68h1M59 68h1M72 68h1M84 68h2M94 68h1M12 69h1M15 69h1M17 69h1M20 69h1M26 69h1M35 69h1M41 69h1M43 69h1M52 69h1M54 69h1M63 69h1M67 69h1M69 69h1M73 69h1M86 69h1M89 69h1M0 70h1M6 70h1M14 70h1M17 70h1M23 70h1M45 70h2M57 70h1M60 70h1M62 70h1M78 70h1M84 70h1M88 70h1M13 71h1M15 71h2M18 71h1M33 71h1M35 71h1M38 71h1M41 71h1M56 71h1M64 71h1M70 71h1M74 71h1M76 71h1M79 71h1M85 71h1M92 73h1M91 74h2M3 75h1M90 75h3M3 76h2M89 76h4M3 77h3M88 77h3M3 78h4M87 78h3M3 79h5M86 79h4M3 80h6M85 80h5M3 81h7M84 81h6M3 82h8M86 82h4M3 83h9M82 83h1M86 83h4M3 84h10M81 84h2M3 85h11M80 85h5M3 86h12M79 86h6M91 86h1M3 87h13M78 87h7M3 88h14M77 88h8M3 89h15M76 89h3M3 90h16M75 90h3M87 90h1M74 91h2" />
<path stroke="#323231" d="M6 21h1M28 30h1M2 34h1M81 36h1M80 37h1M83 37h2M94 37h1M41 38h1M16 39h1M19 39h1M26 40h1M38 40h1M41 40h1M49 40h1M1 41h1M42 41h1M45 41h1M53 41h2M3 42h1M11 42h1M16 42h1M50 42h1M78 42h3M85 42h1M12 43h1M40 43h1M18 44h1M25 45h1M47 45h1M87 45h2M23 46h1M37 46h1M47 46h1M11 48h1M26 48h1M31 48h1M9 49h1M24 49h1M29 49h1M7 50h1M17 51h1M26 51h1M15 52h1" />
<path stroke="#2c2d2d" d="M20 21h1M43 23h1M43 24h1M95 27h1M3 28h1M1 29h1M29 30h1M31 30h2M1 31h1M39 32h1M38 33h1M44 33h1M81 33h1M96 33h1M38 34h3M81 34h2M2 35h1M20 35h1M39 35h3M47 35h2M0 36h2M20 36h1M41 36h1M45 36h1M47 36h2M0 37h5M19 37h2M45 37h1M47 37h1M79 37h1M96 37h1M2 38h2M16 38h1M40 38h1M77 38h1M85 38h1M3 39h4M12 39h1M20 39h1M34 39h1M50 39h1M3 40h2M12 40h3M21 40h1M23 40h1M27 40h2M33 40h1M37 40h1M39 40h2M42 40h3M52 40h2M10 41h1M12 41h3M18 41h1M22 41h1M38 41h1M43 41h2M85 41h2M96 41h1M0 42h2M4 42h1M12 42h2M17 42h2M21 42h1M23 42h1M26 42h1M33 42h3M40 42h1M43 42h1M0 43h2M4 43h1M14 43h1M17 43h2M20 43h7M34 43h3M51 43h1M74 43h1M79 43h1M1 44h1M3 44h1M7 44h1M21 44h6M32 44h1M35 44h2M40 44h3M48 44h1M51 44h1M0 45h2M6 45h1M22 45h1M39 45h3M43 45h2M48 45h1M77 45h1M91 45h1M3 46h1M15 46h2M20 46h3M28 46h1M38 46h3M74 46h1M76 46h3M80 46h1M82 46h1M87 46h2M91 46h2M0 47h6M8 47h1M13 47h2M16 47h1M20 47h3M29 47h1M32 47h1M36 47h2M39 47h2M44 47h1M46 47h1M48 47h1M59 47h1M73 47h2M77 47h8M86 47h2M89 47h2M92 47h5M0 48h1M2 48h4M13 48h2M16 48h1M18 48h5M37 48h1M39 48h3M43 48h2M46 48h3M58 48h2M74 48h7M82 48h5M88 48h1M91 48h3M95 48h2M0 49h1M8 49h1M11 49h3M16 49h6M28 49h1M32 49h2M37 49h5M45 49h1M47 49h1M57 49h1M59 49h1M71 49h1M73 49h4M78 49h6M85 49h4M91 49h3M95 49h2M6 50h1M13 50h1M16 50h1M20 50h1M26 50h1M31 50h3M36 50h3M41 50h1M43 50h1M45 50h1M56 50h5M70 50h3M74 50h5M80 50h2M85 50h1M87 50h3M6 51h2M10 51h1M12 51h2M18 51h3M23 51h1M27 51h3M32 51h3M36 51h2M41 51h2M44 51h2M56 51h1M58 51h5M70 51h3M75 51h5M82 51h9M92 51h1M0 52h1M4 52h4M10 52h3M17 52h3M21 52h1M23 52h3M27 52h3M32 52h3M36 52h2M41 52h1M59 52h1M61 52h3M69 52h1M73 52h2M79 52h1M84 52h1M86 52h1M88 52h1M92 52h1M96 52h1M0 53h3M4 53h1M6 53h2M10 53h1M12 53h5M18 53h1M20 53h5M28 53h2M31 53h3M36 53h1M38 53h1M42 53h1M51 53h1M55 53h4M61 53h1M63 53h1M65 53h1M68 53h2M73 53h1M75 53h1M78 53h2M82 53h1M88 53h1M92 53h2M0 54h1M2 54h1M4 54h3M12 54h5M18 54h3M23 54h1M27 54h3M36 54h4M42 54h1M50 54h1M55 54h2M59 54h1M63 54h1M66 54h3M73 54h2M77 54h2M80 54h1M84 54h1M86 54h3M90 54h2M96 54h1M0 55h5M6 55h3M10 55h6M19 55h1M23 55h1M27 55h1M29 55h2M32 55h2M35 55h1M37 55h2M50 55h1M52 55h1M57 55h2M60 55h1M65 55h2M68 55h3M72 55h1M75 55h1M78 55h3M83 55h6M90 55h2M96 55h1M0 56h1M2 56h1M7 56h9M20 56h8M29 56h7M37 56h1M48 56h4M62 56h1M65 56h1M69 56h1M72 56h3M85 56h5M0 57h1M4 57h7M16 57h1M18 57h2M21 57h1M23 57h5M29 57h2M32 57h2M50 57h2M63 57h2M69 57h1M71 57h4M77 57h1M84 57h1M86 57h3M0 58h2M3 58h2M13 58h1M16 58h4M21 58h1M24 58h2M31 58h1M33 58h3M47 58h2M61 58h2M64 58h1M69 58h4M77 58h2M81 58h1M84 58h1M87 58h1M93 58h1M2 59h1M4 59h1M15 59h3M21 59h1M23 59h3M28 59h1M31 59h3M35 59h1M45 59h4M58 59h1M60 59h2M63 59h2M71 59h1M77 59h1M82 59h1M84 59h1M87 59h2M91 59h2M3 60h2M12 60h2M15 60h2M18 60h2M21 60h1M23 60h1M29 60h3M46 60h2M50 60h1M68 60h2M79 60h1M86 60h1M88 60h1M9 61h1M12 61h6M19 61h2M22 61h1M30 61h1M43 61h1M50 61h1M60 61h1M67 61h2M75 61h2M80 61h1M85 61h1M87 61h1M89 61h1M95 61h1M8 62h1M11 62h1M13 62h1M15 62h1M17 62h4M23 62h1M28 62h3M43 62h1M46 62h1M50 62h5M61 62h2M73 62h1M76 62h2M81 62h2M84 62h2M0 63h1M4 63h2M7 63h2M14 63h4M19 63h2M22 63h1M26 63h3M31 63h1M43 63h1M51 63h2M61 63h1M63 63h2M67 63h2M71 63h1M73 63h1M82 63h1M90 63h1M8 64h1M14 64h2M18 64h1M21 64h1M31 64h2M50 64h3M57 64h3M61 64h1M63 64h3M67 64h5M73 64h1M80 64h2M95 64h2M3 65h2M7 65h1M14 65h2M31 65h1M46 65h1M56 65h1M59 65h1M61 65h8M70 65h2M73 65h1M80 65h2M94 65h3M2 66h2M8 66h1M14 66h1M42 66h1M50 66h1M63 66h2M76 66h1M79 66h2M84 66h1M96 66h1M3 67h1M12 67h1M38 67h1M43 67h1M49 67h2M72 67h1M76 67h1M83 67h1M95 67h1M8 68h3M1 69h1" />
<path stroke="#464f52" d="M44 21h1" />
<path stroke="#414547" d="M45 21h1" />
<path stroke="#42494b" d="M49 21h1" />
<path stroke="#434a4d" d="M50 21h1" />
<path stroke="#475256" d="M51 21h1" />
<path stroke="#495960" d="M54 21h1" />
<path stroke="#4f666f" d="M55 21h1" />
<path stroke="#48565b" d="M56 21h1M71 34h1M72 35h1" />
<path stroke="#414c4e" d="M93 21h1" />
<path stroke="#4a9baf" d="M94 21h1" />
<path stroke="#52d7f9" d="M95 21h1" />
<path stroke="#5adfff" d="M96 21h1" />
<path stroke="#0192b5" d="M0 22h1" />
<path stroke="#1f879f" d="M1 22h1" />
<path stroke="#2e4c54" d="M2 22h1" />
<path stroke="#272727" d="M3 22h1" />
<path stroke="#2d2e2d" d="M20 22h1M28 26h1M88 26h1M30 31h1M38 31h1M82 32h1M94 32h1M95 33h1M41 34h1M43 35h1M3 36h1M46 37h1M0 38h1M24 38h1M32 38h1M0 39h1M23 39h1M33 39h1M40 39h1M29 40h1M77 40h1M85 40h1M89 40h1M23 41h1M27 41h1M2 42h1M14 42h1M38 42h1M46 42h1M49 42h1M48 43h2M78 43h1M0 44h1M43 44h1M45 44h1M74 44h1M2 45h1M17 45h1M20 45h2M45 45h1M0 46h1M2 46h1M5 46h1M83 46h1M86 46h1M89 46h1M30 47h1M33 47h1M38 47h1M43 47h1M47 47h1M49 47h1M76 47h1M85 47h1M88 47h1M91 47h1M1 48h1M9 48h1M25 48h1M61 48h1M87 48h1M89 48h1M43 49h1M46 49h1M55 49h1M72 49h1M77 49h1M84 49h1M5 50h1M10 50h1M12 50h1M19 50h1M42 50h1M44 50h1M54 50h1M61 50h1M79 50h1M82 50h1M86 50h1M94 50h1M8 51h2M11 51h1M16 51h1M21 51h1M24 51h1M53 51h1M55 51h1M69 51h1M73 51h1M80 51h1M91 51h1M3 52h1M9 52h1M14 52h1M20 52h1M22 52h1M31 52h1M38 52h1M42 52h1M54 52h1M57 52h1M75 52h2M78 52h1M85 52h1M90 52h1M5 53h1M8 53h1M11 53h1M19 53h1M25 53h1M30 53h1M52 53h1M59 53h1M62 53h1M74 53h1M80 53h1M83 53h1M87 53h1M91 53h1M3 54h1M7 54h1M9 54h2M17 54h1M21 54h1M31 54h1M34 54h1M52 54h1M57 54h1M60 54h1M69 54h1M75 54h2M82 54h1M92 54h1M16 55h1M18 55h1M20 55h1M28 55h1M36 55h1M39 55h1M51 55h1M73 55h2M5 56h1M16 56h1M18 56h1M36 56h1M61 56h1M82 56h1M90 56h1M1 57h1M13 57h2M20 57h1M28 57h1M31 57h1M35 57h1M62 57h1M76 57h1M2 58h1M15 58h1M22 58h1M26 58h1M28 58h1M30 58h1M32 58h1M60 58h1M65 58h1M88 58h1M3 59h1M13 59h2M19 59h2M27 59h1M34 59h1M59 59h1M72 59h1M83 59h1M17 60h1M20 60h1M22 60h1M48 60h1M60 60h1M83 60h1M85 60h1M10 61h1M18 61h1M21 61h1M53 61h1M69 61h1M79 61h1M82 61h1M84 61h1M4 62h1M9 62h1M14 62h1M16 62h1M21 62h1M66 62h1M1 63h1M18 63h1M50 63h1M53 63h1M65 63h1M3 64h1M7 64h1M20 64h1M8 65h1M21 65h1M78 65h1M20 66h1M59 66h1M71 66h1M81 66h1M95 66h1M2 67h1M26 67h1M42 67h1M62 67h1" />
<path stroke="#333333" d="M43 22h1M45 22h1M18 24h1M21 24h1M18 26h1M2 27h1M94 28h1M29 29h1M66 30h1M3 35h1M78 35h1M40 36h1M83 36h1M50 38h1M95 38h1M15 39h1M24 39h1M31 39h1M46 40h1M72 40h1M87 40h1M90 40h1M9 41h1M28 41h1M36 41h1M92 41h1M51 42h1M6 43h1M15 43h1M42 43h1M44 43h1M76 43h1M14 44h1M39 44h1M77 44h1M79 44h1M81 44h1M92 44h1M18 45h1M75 45h1M81 45h1M9 46h1M81 46h1M84 46h1M28 47h1M30 48h1M57 48h1M1 49h1M10 49h1M0 50h1M9 50h1M4 51h1M37 53h1" />
<path stroke="#4c5a5f" d="M44 22h1" />
<path stroke="#519db9" d="M48 22h1" />
<path stroke="#4b636c" d="M49 22h1" />
<path stroke="#4d5e64" d="M50 22h1" />
<path stroke="#4c616a" d="M52 22h1" />
<path stroke="#455156" d="M55 22h1" />
<path stroke="#54717c" d="M56 22h1" />
<path stroke="#475f65" d="M94 22h1" />
<path stroke="#54aabe" d="M95 22h1" />
<path stroke="#65dffe" d="M96 22h1" />
<path stroke="#117891" d="M0 23h1" />
<path stroke="#31535b" d="M1 23h1" />
<path stroke="#2f2f2e" d="M21 23h1M20 24h1M0 25h1M18 25h1M1 32h1M94 33h1M78 34h1M42 35h1M46 36h1M96 36h1M4 38h1M49 38h1M76 40h1M86 40h1M3 41h1M24 41h1M26 41h1M39 41h1M25 42h1M86 42h1M33 43h1M34 44h1M92 45h1M19 46h1M46 46h1M48 46h1M75 46h1M15 47h1M8 48h1M36 48h1M58 49h1M8 50h1M81 52h1M51 54h1" />
<path stroke="#509bb7" d="M48 23h1" />
<path stroke="#59b6db" d="M49 23h1" />
<path stroke="#4e727f" d="M50 23h1" />
<path stroke="#434b4e" d="M51 23h1" />
<path stroke="#435359" d="M52 23h1" />
<path stroke="#424547" d="M55 23h1M49 26h1" />
<path stroke="#4c5c62" d="M57 23h1" />
<path stroke="#50646b" d="M58 23h1" />
<path stroke="#495458" d="M59 23h1M54 24h1M57 25h1" />
<path stroke="#4a6066" d="M95 23h1" />
<path stroke="#66aec0" d="M96 23h1" />
<path stroke="#2a4c55" d="M0 24h1" />
<path stroke="#353536" d="M1 24h1" />
<path stroke="#454a4c" d="M47 24h1" />
<path stroke="#49565b" d="M48 24h1" />
<path stroke="#53a2c0" d="M49 24h1" />
<path stroke="#56bfe5" d="M50 24h1" />
<path stroke="#466f7e" d="M51 24h1" />
<path stroke="#3a3f41" d="M52 24h1" />
<path stroke="#47585f" d="M53 24h1" />
<path stroke="#4b575c" d="M57 24h1" />
<path stroke="#49555a" d="M58 24h1" />
<path stroke="#46585c" d="M96 24h1" />
<path stroke="#313131" d="M15 25h1M12 28h1M95 31h1M93 32h1M82 33h1M38 35h1M84 35h1M43 36h1M35 37h1M95 37h1M30 38h1M35 38h1M83 38h1M94 38h1M7 39h1M41 39h1M91 39h1M19 40h1M34 40h1M45 40h1M93 40h1M4 41h1M37 41h1M46 41h1M81 41h1M6 42h1M39 42h1M89 42h1M5 43h1M6 44h1M96 44h1M33 45h1M36 45h1M86 45h1M17 48h1M32 48h1M7 49h1M23 50h1M34 50h1M22 51h1" />
<path stroke="#353636" d="M39 25h2" />
<path stroke="#464f53" d="M49 25h1" />
<path stroke="#519fbc" d="M50 25h1" />
<path stroke="#56accc" d="M51 25h1" />
<path stroke="#487d91" d="M52 25h1" />
<path stroke="#3f4c51" d="M53 25h1" />
<path stroke="#3b3c3c" d="M38 26h1" />
<path stroke="#373a3b" d="M39 26h1" />
<path stroke="#3d474a" d="M40 26h1" />
<path stroke="#424c50" d="M41 26h1M58 29h1M70 34h1" />
<path stroke="#42545b" d="M50 26h1" />
<path stroke="#50a4c2" d="M51 26h1" />
<path stroke="#4e9dba" d="M52 26h1" />
<path stroke="#5294ac" d="M53 26h1" />
<path stroke="#4a5255" d="M54 26h1" />
<path stroke="#4c6068" d="M39 27h1" />
<path stroke="#6391a3" d="M40 27h1M62 31h1" />
<path stroke="#4e5e64" d="M41 27h1" />
<path stroke="#3c4042" d="M50 27h1" />
<path stroke="#425860" d="M51 27h1" />
<path stroke="#5dbbdd" d="M52 27h1" />
<path stroke="#6cacc3" d="M53 27h1" />
<path stroke="#5eb4d3" d="M54 27h1" />
<path stroke="#4b5b61" d="M55 27h1" />
<path stroke="#3d4548" d="M56 27h1M74 36h1" />
<path stroke="#4a5b61" d="M39 28h1M68 45h1" />
<path stroke="#454d51" d="M45 28h1" />
<path stroke="#4e95af" d="M49 28h1" />
<path stroke="#4b93ac" d="M50 28h1" />
<path stroke="#6f939f" d="M52 28h1" />
<path stroke="#95bfce" d="M53 28h1" />
<path stroke="#86b1c1" d="M54 28h1" />
<path stroke="#5facc8" d="M55 28h1" />
<path stroke="#4b6d7a" d="M56 28h1" />
<path stroke="#3d4549" d="M57 28h1" />
<path stroke="#414a4e" d="M61 28h1" />
<path stroke="#435860" d="M49 29h1M52 43h1" />
<path stroke="#53b7db" d="M50 29h1" />
<path stroke="#497585" d="M51 29h1" />
<path stroke="#45494a" d="M52 29h1" />
<path stroke="#9ea9ad" d="M53 29h1" />
<path stroke="#c1c3c4" d="M54 29h1" />
<path stroke="#93b1bc" d="M55 29h1" />
<path stroke="#67bad8" d="M56 29h1" />
<path stroke="#629db3" d="M57 29h1" />
<path stroke="#4e666f" d="M67 29h1" />
<path stroke="#506871" d="M68 29h1" />
<path stroke="#47545a" d="M69 29h1" />
<path stroke="#498ba3" d="M50 30h1" />
<path stroke="#51adcf" d="M51 30h1" />
<path stroke="#4b656e" d="M52 30h1" />
<path stroke="#92a0a5" d="M53 30h1" />
<path stroke="#c2c4c5" d="M54 30h1" />
<path stroke="#c5c6c7" d="M55 30h1" />
<path stroke="#b1c1c6" d="M56 30h1" />
<path stroke="#6dc3e2" d="M57 30h1" />
<path stroke="#5d9bb2" d="M58 30h1" />
<path stroke="#42494d" d="M61 30h1" />
<path stroke="#3e4243" d="M63 30h1" />
<path stroke="#536f7a" d="M67 30h2" />
<path stroke="#4e656d" d="M69 30h1" />
<path stroke="#454f53" d="M70 30h1" />
<path stroke="#464e51" d="M71 30h1" />
<path stroke="#393d3e" d="M72 30h1" />
<path stroke="#4c636c" d="M45 31h1" />
<path stroke="#50a6c5" d="M51 31h1" />
<path stroke="#58bce0" d="M52 31h1" />
<path stroke="#75888e" d="M53 31h1" />
<path stroke="#bec3c4" d="M54 31h1" />
<path stroke="#c8c9c9" d="M55 31h1M55 32h1" />
<path stroke="#cbcdce" d="M56 31h1M55 33h1" />
<path stroke="#b0c1c7" d="M57 31h1" />
<path stroke="#78bdd6" d="M58 31h1" />
<path stroke="#5ba1bb" d="M59 31h1" />
<path stroke="#414f54" d="M60 31h1" />
<path stroke="#567581" d="M61 31h1M71 33h1M73 36h1" />
<path stroke="#475459" d="M63 31h1" />
<path stroke="#4c5e65" d="M69 31h1" />
<path stroke="#5f8898" d="M70 31h1" />
<path stroke="#5e8696" d="M71 31h1" />
<path stroke="#424f54" d="M72 31h1" />
<path stroke="#37393a" d="M36 32h1" />
<path stroke="#2f302f" d="M38 32h1M78 33h1M5 34h1M83 34h1M81 35h1M42 36h1M24 37h1M20 38h1M30 39h1M15 40h3M50 40h2M92 40h1M5 41h1M11 41h1M16 41h1M49 41h1M93 41h1M10 42h1M36 42h1M45 43h1M13 44h1M23 45h1M45 47h1M5 49h1M34 49h2M17 50h1M35 53h1" />
<path stroke="#457587" d="M51 32h1" />
<path stroke="#54a6c4" d="M52 32h1" />
<path stroke="#5e8d9e" d="M53 32h1" />
<path stroke="#b5b9ba" d="M54 32h1M54 33h1" />
<path stroke="#ccd0d0" d="M56 32h1" />
<path stroke="#cdd1d2" d="M57 32h1M58 33h1" />
<path stroke="#bfc7c9" d="M58 32h1" />
<path stroke="#82b5c7" d="M59 32h1" />
<path stroke="#5dacc9" d="M60 32h1" />
<path stroke="#4a636d" d="M61 32h1" />
<path stroke="#4f6871" d="M62 32h1" />
<path stroke="#4b5d64" d="M69 32h1" />
<path stroke="#75b8d1" d="M70 32h1" />
<path stroke="#6da7bd" d="M71 32h1" />
<path stroke="#4d6169" d="M72 32h1" />
<path stroke="#2c2c2c" d="M95 32h1M20 34h1M2 36h1M1 38h1M34 38h1M84 38h1M49 39h1M77 39h1M83 39h1M5 40h1M30 40h1M2 41h1M34 41h1M41 41h1M15 42h1M19 42h1M22 42h1M24 42h1M2 43h1M19 43h1M43 43h1M50 43h1M2 44h1M17 44h1M20 44h1M44 44h1M3 45h1M16 45h1M42 45h1M76 45h1M1 46h1M79 46h1M31 47h1M60 47h1M75 47h1M38 48h1M45 48h1M72 48h2M81 48h1M90 48h1M25 49h1M31 49h1M36 49h1M42 49h1M56 49h1M61 49h1M11 50h1M39 50h2M46 50h1M55 50h1M73 50h1M83 50h2M90 50h1M3 51h1M5 51h1M38 51h1M54 51h1M57 51h1M74 51h1M81 51h1M93 51h1M96 51h1M8 52h1M13 52h1M16 52h1M26 52h1M30 52h1M39 52h1M52 52h1M55 52h2M58 52h1M77 52h1M80 52h1M82 52h1M87 52h1M89 52h1M91 52h1M93 52h1M3 53h1M9 53h1M17 53h1M34 53h1M54 53h1M67 53h1M76 53h1M81 53h1M86 53h1M1 54h1M8 54h1M11 54h1M22 54h1M25 54h1M30 54h1M35 54h1M54 54h1M58 54h1M61 54h2M79 54h1M81 54h1M83 54h1M85 54h1M95 54h1M9 55h1M17 55h1M31 55h1M34 55h1M49 55h1M62 55h1M67 55h1M76 55h2M92 55h1M1 56h1M4 56h1M6 56h1M17 56h1M19 56h1M28 56h1M63 56h1M71 56h1M75 56h2M80 56h1M91 56h1M15 57h1M22 57h1M34 57h1M47 57h1M78 57h2M82 57h2M85 57h1M14 58h1M20 58h1M27 58h1M29 58h1M59 58h1M66 58h1M83 58h1M1 59h1M12 59h1M18 59h1M30 59h1M49 59h1M62 59h1M66 59h1M69 59h2M93 59h1M1 60h1M6 60h1M11 60h1M14 60h1M44 60h1M67 60h1M75 60h1M80 60h3M84 60h1M87 60h1M92 60h2M1 61h1M7 61h2M11 61h1M23 61h1M29 61h1M44 61h1M51 61h1M62 61h1M77 61h1M81 61h1M1 62h1M7 62h1M10 62h1M12 62h1M22 62h1M65 62h1M67 62h3M83 62h1M86 62h1M13 63h1M21 63h1M48 63h1M66 63h1M69 63h1M72 63h1M81 63h1M4 64h1M16 64h2M48 64h1M56 64h1M60 64h1M62 64h1M66 64h1M82 64h1M1 65h2M20 65h1M49 65h1M52 65h2M60 65h1M43 66h1M49 66h1M56 66h1M77 66h2M82 66h2M55 67h1M60 67h2M90 67h1M61 68h1M9 69h2" />
<path stroke="#3c4346" d="M35 33h1M75 35h1" />
<path stroke="#4a626a" d="M36 33h1" />
<path stroke="#393d3f" d="M37 33h1" />
<path stroke="#519ebc" d="M52 33h1" />
<path stroke="#59afcf" d="M53 33h1" />
<path stroke="#d0d4d5" d="M56 33h1" />
<path stroke="#d1d5d5" d="M57 33h1" />
<path stroke="#b8bfc0" d="M59 33h1" />
<path stroke="#7ba4b3" d="M60 33h1" />
<path stroke="#5ab6d7" d="M61 33h1" />
<path stroke="#466976" d="M62 33h1" />
<path stroke="#40474a" d="M63 33h1" />
<path stroke="#536b75" d="M64 33h1" />
<path stroke="#5f8c9d" d="M65 33h1" />
<path stroke="#475b63" d="M66 33h1" />
<path stroke="#48565c" d="M69 33h1" />
<path stroke="#679aae" d="M70 33h1" />
<path stroke="#3b4244" d="M36 34h1" />
<path stroke="#282828" d="M37 34h1M33 38h1M79 38h1M21 41h1M13 43h1M44 49h1M30 50h1M83 52h1M39 53h1M96 53h1M32 54h1M89 55h1M77 56h1M81 56h1M83 56h1M36 57h1M89 57h1M76 58h1M86 58h1M6 59h1M68 59h1M81 59h1M86 59h1M5 60h1M4 61h1M88 61h1M5 62h1M31 62h1M63 62h1M3 63h1M43 64h1M47 64h1M92 64h1M16 65h1M51 65h1M57 65h1M79 65h1M70 66h1M10 67h1M62 68h1M36 69h1" />
<path stroke="#467c8f" d="M48 34h1" />
<path stroke="#59c2ea" d="M49 34h1" />
<path stroke="#55a9c8" d="M50 34h1" />
<path stroke="#457485" d="M51 34h1" />
<path stroke="#52abcc" d="M52 34h1" />
<path stroke="#5a96ac" d="M53 34h1" />
<path stroke="#babfc0" d="M54 34h1" />
<path stroke="#c8cecf" d="M55 34h1" />
<path stroke="#cfd2d3" d="M56 34h1" />
<path stroke="#d0d4d6" d="M57 34h1" />
<path stroke="#c0d0d6" d="M58 34h1" />
<path stroke="#a7c8d5" d="M59 34h1" />
<path stroke="#a0b7bf" d="M60 34h1" />
<path stroke="#6c8791" d="M61 34h1" />
<path stroke="#5f8999" d="M62 34h1" />
<path stroke="#6b7478" d="M63 34h1" />
<path stroke="#6b7e86" d="M64 34h1" />
<path stroke="#5e7e8a" d="M65 34h1" />
<path stroke="#526f7a" d="M66 34h1" />
<path stroke="#516e79" d="M67 34h1" />
<path stroke="#4d646d" d="M68 34h1" />
<path stroke="#455257" d="M69 34h1" />
<path stroke="#457486" d="M49 35h1" />
<path stroke="#55b6da" d="M50 35h1" />
<path stroke="#4a8fa8" d="M51 35h1" />
<path stroke="#52a6c6" d="M52 35h1" />
<path stroke="#5babc7" d="M53 35h1" />
<path stroke="#bdbfc0" d="M54 35h1" />
<path stroke="#cccfd0" d="M55 35h1" />
<path stroke="#a4b8bf" d="M56 35h1" />
<path stroke="#97b1bb" d="M57 35h1" />
<path stroke="#a7c8d6" d="M58 35h1" />
<path stroke="#9bcfe2" d="M59 35h1" />
<path stroke="#a8c0c9" d="M60 35h1" />
<path stroke="#aab3b6" d="M61 35h1M57 40h1" />
<path stroke="#6c7b83" d="M62 35h1" />
<path stroke="#5f6267" d="M63 35h1" />
<path stroke="#83807c" d="M64 35h1" />
<path stroke="#6a7a7e" d="M65 35h1" />
<path stroke="#536a72" d="M66 35h1" />
<path stroke="#6498ab" d="M67 35h1" />
<path stroke="#6aa3b8" d="M68 35h1" />
<path stroke="#4f6973" d="M69 35h1" />
<path stroke="#49595f" d="M71 35h1" />
<path stroke="#40494d" d="M74 35h1" />
<path stroke="#3f626e" d="M50 36h1" />
<path stroke="#4d9bb6" d="M51 36h1" />
<path stroke="#92b9c8" d="M52 36h1" />
<path stroke="#9db6bf" d="M53 36h1" />
<path stroke="#b7babb" d="M54 36h1" />
<path stroke="#bfc6c9" d="M55 36h1" />
<path stroke="#97aeb7" d="M56 36h1" />
<path stroke="#89a8b3" d="M57 36h1" />
<path stroke="#b1c4ca" d="M58 36h1" />
<path stroke="#abc1c9" d="M59 36h1" />
<path stroke="#bdc7cc" d="M60 36h1" />
<path stroke="#bcc3c5" d="M61 36h1" />
<path stroke="#99a3a7" d="M62 36h1" />
<path stroke="#827b76" d="M63 36h1" />
<path stroke="#6e665f" d="M64 36h1" />
<path stroke="#7d6d65" d="M65 36h1" />
<path stroke="#5b6265" d="M66 36h1" />
<path stroke="#69a0b5" d="M67 36h1" />
<path stroke="#71b0c9" d="M68 36h1" />
<path stroke="#577c8a" d="M69 36h1M67 37h1" />
<path stroke="#2a2b2a" d="M34 37h1M87 37h1M96 40h1M17 41h1M90 41h1M89 49h1M30 51h1M39 51h2M53 52h1M89 53h1M24 54h1M26 54h1M65 54h1M56 56h1M64 56h1M70 56h1M84 56h1M11 57h1M70 57h1M81 57h1M5 58h1M12 58h1M23 58h1M73 58h1M26 59h1M65 59h1M78 59h1M85 59h1M7 60h1M10 60h1M34 60h1M94 60h2M3 61h1M31 61h1M66 61h1M42 62h1M87 62h1M95 62h1M60 63h1M92 63h1M96 63h1M19 64h1M72 64h1M43 65h1M69 65h1M74 65h1M9 66h1M13 66h1M30 66h1M61 66h2M65 66h2M90 66h1M92 66h1M84 67h1M96 67h1" />
<path stroke="#3f5761" d="M51 37h1" />
<path stroke="#6dbdda" d="M52 37h1" />
<path stroke="#8cbfd2" d="M53 37h1" />
<path stroke="#bcc1c2" d="M54 37h1" />
<path stroke="#a6b6bd" d="M55 37h1" />
<path stroke="#afbfc4" d="M56 37h1" />
<path stroke="#bcc7ca" d="M57 37h1" />
<path stroke="#b4c2c6" d="M58 37h1" />
<path stroke="#b1bec3" d="M59 37h1" />
<path stroke="#aeb6b8" d="M60 37h1" />
<path stroke="#b7bfc1" d="M61 37h1" />
<path stroke="#a2bac2" d="M62 37h1" />
<path stroke="#939fa2" d="M63 37h1" />
<path stroke="#646d71" d="M64 37h1" />
<path stroke="#504b4c" d="M65 37h1" />
<path stroke="#5f6262" d="M66 37h1" />
<path stroke="#557784" d="M68 37h1" />
<path stroke="#4b636d" d="M69 37h1" />
<path stroke="#3c4447" d="M72 37h1M73 41h1" />
<path stroke="#3f494d" d="M73 37h1" />
<path stroke="#53595b" d="M52 38h1" />
<path stroke="#70beda" d="M53 38h1" />
<path stroke="#84c2d8" d="M54 38h1" />
<path stroke="#b0bbbf" d="M55 38h1" />
<path stroke="#afc3ca" d="M56 38h1" />
<path stroke="#afc4cc" d="M57 38h1" />
<path stroke="#adb8bd" d="M58 38h1" />
<path stroke="#b2babd" d="M59 38h1" />
<path stroke="#58a5c1" d="M60 38h1" />
<path stroke="#61a7c1" d="M61 38h1" />
<path stroke="#aebcc0" d="M62 38h1" />
<path stroke="#a4b6bd" d="M63 38h1" />
<path stroke="#889fa9" d="M64 38h1" />
<path stroke="#618ea0" d="M65 38h1" />
<path stroke="#5ba8c5" d="M66 38h1" />
<path stroke="#3f4f55" d="M67 38h1" />
<path stroke="#45565d" d="M68 38h1" />
<path stroke="#44545b" d="M69 38h1M71 41h1" />
<path stroke="#414d52" d="M72 38h1M71 39h1" />
<path stroke="#495e66" d="M73 38h1" />
<path stroke="#212221" d="M92 38h1M21 39h2M19 41h2M19 44h1M19 45h1M94 45h1M94 46h2M60 48h1M94 48h1M27 50h1M29 50h1M95 50h1M95 51h1M40 52h1M43 52h1M60 52h1M71 52h1M94 52h2M27 53h1M40 53h1M53 53h1M94 53h1M33 54h1M41 54h1M71 54h1M94 54h1M5 55h1M21 55h1M24 55h1M40 55h2M53 55h3M64 55h1M81 55h1M94 55h1M3 56h1M52 56h2M55 56h1M57 56h3M67 56h2M93 56h3M3 57h1M37 57h1M48 57h1M53 57h1M56 57h1M58 57h2M67 57h1M75 57h1M91 57h2M94 57h3M7 58h1M36 58h2M49 58h2M53 58h4M58 58h1M67 58h2M74 58h1M79 58h2M89 58h2M95 58h2M29 59h1M36 59h2M51 59h2M55 59h3M67 59h1M73 59h2M80 59h1M90 59h1M95 59h2M0 60h1M24 60h1M26 60h3M32 60h2M36 60h1M51 60h7M64 60h1M72 60h1M25 61h4M33 61h3M45 61h1M48 61h1M52 61h1M55 61h1M58 61h1M61 61h1M64 61h1M71 61h3M90 61h3M24 62h1M26 62h1M32 62h1M45 62h1M47 62h1M56 62h1M58 62h2M64 62h1M70 62h3M75 62h1M92 62h1M94 62h1M2 63h1M11 63h1M29 63h1M32 63h2M41 63h1M44 63h1M54 63h2M58 63h1M70 63h1M74 63h4M80 63h1M84 63h2M87 63h1M89 63h1M1 64h2M6 64h1M10 64h2M22 64h8M40 64h3M44 64h2M54 64h1M75 64h5M84 64h2M87 64h4M94 64h1M0 65h1M5 65h1M10 65h2M22 65h3M29 65h1M39 65h3M44 65h1M47 65h1M54 65h1M72 65h1M75 65h2M87 65h3M93 65h1M1 66h1M5 66h1M11 66h2M16 66h3M23 66h6M38 66h1M41 66h1M47 66h2M51 66h1M69 66h1M74 66h1M89 66h1M93 66h1M4 67h2M15 67h3M20 67h1M22 67h2M25 67h1M39 67h1M44 67h5M51 67h1M53 67h1M56 67h3M63 67h3M69 67h1M71 67h1M74 67h1M79 67h3M86 67h3M92 67h3M0 68h2M3 68h2M12 68h2M15 68h5M23 68h2M26 68h3M36 68h1M39 68h3M45 68h2M49 68h1M52 68h4M58 68h1M63 68h5M69 68h3M73 68h4M78 68h4M86 68h3M90 68h4M95 68h2M2 69h6M13 69h2M16 69h1M18 69h2M21 69h5M27 69h1M37 69h4M42 69h1M44 69h1M46 69h2M49 69h2M53 69h1M55 69h5M61 69h2M64 69h3M68 69h1M70 69h2M74 69h1M76 69h10M87 69h2M92 69h3M1 70h5M7 70h2M11 70h3M15 70h2M18 70h4M24 70h2M36 70h2M39 70h4M47 70h10M59 70h1M61 70h1M64 70h10M76 70h2M80 70h4M85 70h3M90 70h5M0 71h13M17 71h1M19 71h7M36 71h1M39 71h2M42 71h14M57 71h7M65 71h5M71 71h3M77 71h2M80 71h5M86 71h8M1 72h25M32 72h61M2 73h25M31 73h61M3 74h25M30 74h61M4 75h86M5 76h84M6 77h82M7 78h80M8 79h78M9 80h76M10 81h74M11 82h72M12 83h70M13 84h68M14 85h66M15 86h64M16 87h62M17 88h60M18 89h58M19 90h56M20 91h54M21 92h52M22 93h50M23 94h48M24 95h46" />
<path stroke="#272827" d="M93 38h1M91 40h1M93 46h1M60 53h1M72 54h1M8 58h1M57 58h1M63 58h1M91 58h1M94 58h1M22 59h1M76 59h1M2 60h1M9 60h1M61 60h1M63 60h1M78 61h1M0 62h1M44 62h1M49 62h1M10 63h1M30 64h1M83 64h1M17 65h1M45 65h1M50 65h1M15 66h1M52 66h1M55 66h1M86 66h1M94 66h1M9 67h1M77 67h1M85 67h1M89 67h1M91 67h1M25 68h1M83 68h1" />
<path stroke="#5b6264" d="M53 39h1" />
<path stroke="#61a0b7" d="M54 39h1" />
<path stroke="#6fbeda" d="M55 39h1" />
<path stroke="#a0c3cf" d="M56 39h1" />
<path stroke="#adbec4" d="M57 39h1" />
<path stroke="#adb6b9" d="M58 39h1M60 42h1" />
<path stroke="#abb3b5" d="M59 39h1" />
<path stroke="#3c7d98" d="M60 39h1" />
<path stroke="#42869e" d="M61 39h1" />
<path stroke="#a9bcc4" d="M62 39h1" />
<path stroke="#a8bbc1" d="M63 39h1" />
<path stroke="#a5bac2" d="M64 39h1" />
<path stroke="#85a0a9" d="M65 39h1" />
<path stroke="#5393ab" d="M66 39h1" />
<path stroke="#559db8" d="M67 39h1" />
<path stroke="#3e474b" d="M68 39h1" />
<path stroke="#425055" d="M69 39h1" />
<path stroke="#495f67" d="M70 39h1" />
<path stroke="#3d4d53" d="M72 39h1" />
<path stroke="#3a4f57" d="M73 39h1" />
<path stroke="#232323" d="M76 39h1M92 39h1M96 45h1M90 46h1M93 50h1M56 55h1M59 55h1M71 55h1M78 56h1M92 56h1M96 56h1M12 57h1M61 57h1M5 59h1M65 60h1M77 60h1M96 60h1M2 61h1M59 63h1M13 65h1M53 66h1M68 66h1M43 68h2M89 68h1M9 70h1M34 70h1M75 70h1" />
<path stroke="#242524" d="M22 40h1M26 49h1M43 51h1M26 53h1M72 53h1M40 54h1M89 54h1M92 58h1M8 59h1M11 59h1M50 59h1M89 60h1M24 61h1M63 61h1M79 62h1M93 62h1M47 63h1M74 64h1M18 65h1M77 65h1M83 65h1M39 66h1M46 66h1M57 66h1M72 66h1M88 66h1M8 67h1M13 67h1M75 67h1" />
<path stroke="#596266" d="M54 40h1" />
<path stroke="#67a8c1" d="M55 40h1" />
<path stroke="#76a5b7" d="M56 40h1" />
<path stroke="#b3b7b9" d="M58 40h1" />
<path stroke="#a9b4b9" d="M59 40h1" />
<path stroke="#a7b2b5" d="M60 40h1" />
<path stroke="#a4b3b9" d="M61 40h1" />
<path stroke="#adb3b6" d="M62 40h1" />
<path stroke="#acb1b3" d="M63 40h1" />
<path stroke="#a9b1b4" d="M64 40h1" />
<path stroke="#afb7bb" d="M65 40h1" />
<path stroke="#88969c" d="M66 40h1" />
<path stroke="#5392a8" d="M67 40h1" />
<path stroke="#57a0bb" d="M68 40h1" />
<path stroke="#3f5056" d="M69 40h1" />
<path stroke="#4d6770" d="M70 40h1" />
<path stroke="#46585e" d="M71 40h1" />
<path stroke="#262626" d="M33 41h1M90 45h1M60 49h1M90 49h1M44 52h1M72 52h1M95 53h1M39 56h1M60 57h1M9 58h1M0 59h1M79 59h1M71 60h1M5 61h1M83 61h1M94 61h1M2 62h1M60 62h1M80 62h1M96 62h1M6 63h1M30 63h1M46 63h1M83 63h1M93 63h1M46 64h1M55 64h1M19 65h1M42 65h1M85 65h1M90 65h1M67 66h1M73 66h1M87 66h1M10 70h1" />
<path stroke="#556065" d="M55 41h1" />
<path stroke="#334953" d="M56 41h1" />
<path stroke="#73787a" d="M57 41h1" />
<path stroke="#afb2b2" d="M58 41h1M65 42h1" />
<path stroke="#adb4b7" d="M59 41h1" />
<path stroke="#aab3b7" d="M60 41h1" />
<path stroke="#a0b0b5" d="M61 41h1" />
<path stroke="#a8b0b0" d="M62 41h1" />
<path stroke="#97a0a3" d="M63 41h1" />
<path stroke="#a6aeb1" d="M64 41h1" />
<path stroke="#aeb5b7" d="M65 41h1" />
<path stroke="#a9b9bf" d="M66 41h1" />
<path stroke="#899093" d="M67 41h1" />
<path stroke="#528ca1" d="M68 41h1M73 45h1" />
<path stroke="#5199b3" d="M69 41h1" />
<path stroke="#404f54" d="M70 41h1" />
<path stroke="#506d79" d="M72 41h1" />
<path stroke="#202020" d="M89 41h1M93 45h1M95 45h1M27 49h1M53 54h1M63 55h1M40 56h1M39 57h1M52 57h1M54 57h1M93 57h1M38 58h1M75 58h1M7 59h1M53 59h1M49 60h1M74 60h1M0 61h1M32 61h1M46 61h1M57 61h1M34 62h1M74 62h1M88 62h1M90 62h1M25 63h1M45 63h1M57 63h1M91 64h1M93 64h1M9 65h1M25 65h2M28 65h1M92 65h1M6 66h1M21 66h1M40 66h1M54 66h1M0 67h2M7 67h1M19 67h1M27 67h1M2 68h1M14 68h1M21 68h1M38 68h1M47 68h1M50 68h1M57 68h1M68 68h1M82 68h1M0 69h1M11 69h1M45 69h1M48 69h1M51 69h1M60 69h1M72 69h1M75 69h1M90 69h2M95 69h1M22 70h1M26 70h1M35 70h1M38 70h1M43 70h2M58 70h1M63 70h1M74 70h1M79 70h1M89 70h1M14 71h1M34 71h1M37 71h1M75 71h1" />
<path stroke="#292a29" d="M91 41h1M20 42h1M30 49h1M94 49h1M91 50h1M31 51h1M35 52h1M68 52h1M77 53h1M84 53h1M90 53h1M70 54h1M93 54h1M61 55h1M82 55h1M95 55h1M38 56h1M79 56h1M49 57h1M66 57h1M80 57h1M90 57h1M46 58h1M85 58h1M94 59h1M8 60h1M25 60h1M45 60h1M59 60h1M66 60h1M78 60h1M91 60h1M54 61h1M86 61h1M3 62h1M78 62h1M91 62h1M9 63h1M12 63h1M49 63h1M91 63h1M13 64h1M49 64h1M53 64h1M48 65h1M55 65h1M58 65h1M82 65h1M58 66h1M60 66h1M85 66h1M11 67h1M14 67h1M59 67h1" />
<path stroke="#525b60" d="M54 42h1" />
<path stroke="#787a7c" d="M55 42h1" />
<path stroke="#685f5a" d="M56 42h1" />
<path stroke="#8a7b70" d="M57 42h1" />
<path stroke="#98938c" d="M58 42h1" />
<path stroke="#a8aeb0" d="M59 42h1" />
<path stroke="#aab5b9" d="M61 42h1" />
<path stroke="#a1a7a9" d="M62 42h1" />
<path stroke="#a5adaf" d="M63 42h1" />
<path stroke="#adb1b3" d="M64 42h1" />
<path stroke="#b0b3b3" d="M66 42h2" />
<path stroke="#79878c" d="M68 42h1" />
<path stroke="#5e96ad" d="M69 42h1" />
<path stroke="#62bfe2" d="M70 42h1" />
<path stroke="#518a9f" d="M71 42h1" />
<path stroke="#50717e" d="M72 42h1" />
<path stroke="#4d6872" d="M73 42h1" />
<path stroke="#57707a" d="M53 43h1" />
<path stroke="#929a9d" d="M54 43h1" />
<path stroke="#887d79" d="M55 43h1" />
<path stroke="#978276" d="M56 43h1" />
<path stroke="#8b796e" d="M57 43h1" />
<path stroke="#82756d" d="M58 43h1" />
<path stroke="#606667" d="M59 43h1" />
<path stroke="#a7b6bb" d="M60 43h1" />
<path stroke="#a3b8c0" d="M61 43h1" />
<path stroke="#acb5b8" d="M62 43h1" />
<path stroke="#acadad" d="M63 43h1" />
<path stroke="#b0b1b1" d="M64 43h1" />
<path stroke="#adaeae" d="M65 43h1" />
<path stroke="#ababac" d="M66 43h1" />
<path stroke="#afb5b7" d="M67 43h1" />
<path stroke="#7a8387" d="M68 43h1" />
<path stroke="#3c464a" d="M69 43h1" />
<path stroke="#4d636b" d="M70 43h1" />
<path stroke="#4e899e" d="M71 43h1" />
<path stroke="#559eb9" d="M72 43h1" />
<path stroke="#598ea2" d="M73 43h1" />
<path stroke="#5b7b87" d="M52 44h1" />
<path stroke="#829ca7" d="M53 44h1" />
<path stroke="#807772" d="M54 44h1" />
<path stroke="#836c5f" d="M55 44h1M37 63h1M36 64h1" />
<path stroke="#82695d" d="M56 44h1" />
<path stroke="#8a776c" d="M57 44h1" />
<path stroke="#887a72" d="M58 44h1" />
<path stroke="#293134" d="M59 44h1" />
<path stroke="#6e8f9b" d="M60 44h1" />
<path stroke="#8fa7b0" d="M61 44h1" />
<path stroke="#aab1b4" d="M62 44h1" />
<path stroke="#a9aaaa" d="M63 44h1" />
<path stroke="#a4a5a5" d="M64 44h1" />
<path stroke="#98989a" d="M65 44h1" />
<path stroke="#b5b7b9" d="M66 44h1" />
<path stroke="#7a8184" d="M67 44h1" />
<path stroke="#3f4a4e" d="M68 44h1" />
<path stroke="#475155" d="M69 44h1" />
<path stroke="#494d4f" d="M70 44h1" />
<path stroke="#8b8d8d" d="M71 44h1" />
<path stroke="#7e98a1" d="M72 44h1" />
<path stroke="#559bb6" d="M73 44h1" />
<path stroke="#8d969a" d="M52 45h1" />
<path stroke="#7b7a7a" d="M53 45h1" />
<path stroke="#8b776c" d="M54 45h1" />
<path stroke="#81695c" d="M55 45h1" />
<path stroke="#856d61" d="M56 45h1" />
<path stroke="#87756b" d="M57 45h1" />
<path stroke="#4c4745" d="M58 45h1" />
<path stroke="#4f5f66" d="M59 45h1" />
<path stroke="#4f97b4" d="M60 45h1" />
<path stroke="#5c8898" d="M61 45h1" />
<path stroke="#a1a4a6" d="M62 45h1" />
<path stroke="#a2a4a4" d="M63 45h1" />
<path stroke="#989c9d" d="M64 45h1" />
<path stroke="#aeb3b5" d="M65 45h1" />
<path stroke="#747a7c" d="M66 45h1" />
<path stroke="#3a4043" d="M67 45h1" />
<path stroke="#628896" d="M69 45h1" />
<path stroke="#93a3aa" d="M70 45h1" />
<path stroke="#9a9fa1" d="M71 45h1" />
<path stroke="#658e9e" d="M72 45h1" />
<path stroke="#96a1a6" d="M51 46h1" />
<path stroke="#787e82" d="M52 46h1" />
<path stroke="#988980" d="M53 46h1" />
<path stroke="#887468" d="M54 46h1" />
<path stroke="#7f6e63" d="M55 46h1" />
<path stroke="#72625b" d="M56 46h1" />
<path stroke="#8e9393" d="M57 46h1" />
<path stroke="#4c5d63" d="M58 46h1" />
<path stroke="#455258" d="M59 46h1" />
<path stroke="#4e6168" d="M60 46h1" />
<path stroke="#4e9fbd" d="M61 46h1" />
<path stroke="#5990a4" d="M62 46h1" />
<path stroke="#949798" d="M63 46h1" />
<path stroke="#afb7ba" d="M64 46h1" />
<path stroke="#7b939c" d="M65 46h1" />
<path stroke="#43555c" d="M66 46h1" />
<path stroke="#404648" d="M67 46h1" />
<path stroke="#586063" d="M68 46h1" />
<path stroke="#95a9b1" d="M69 46h1" />
<path stroke="#93b3bf" d="M70 46h1" />
<path stroke="#798f98" d="M71 46h1" />
<path stroke="#53a0bb" d="M72 46h1" />
<path stroke="#3b5b66" d="M73 46h1" />
<path stroke="#979494" d="M50 47h1" />
<path stroke="#88796e" d="M51 47h1" />
<path stroke="#937c6d" d="M52 47h1" />
<path stroke="#897162" d="M53 47h1" />
<path stroke="#806a5e" d="M54 47h1" />
<path stroke="#685e58" d="M55 47h1" />
<path stroke="#808081" d="M56 47h1" />
<path stroke="#43494c" d="M57 47h1" />
<path stroke="#425962" d="M58 47h1" />
<path stroke="#535556" d="M61 47h1" />
<path stroke="#4d9bb8" d="M62 47h1" />
<path stroke="#5393aa" d="M63 47h1" />
<path stroke="#607076" d="M64 47h1" />
<path stroke="#415a64" d="M65 47h1" />
<path stroke="#424b4e" d="M66 47h1" />
<path stroke="#646768" d="M67 47h1" />
<path stroke="#b2b5b6" d="M68 47h1" />
<path stroke="#949b9d" d="M69 47h1" />
<path stroke="#81a3af" d="M70 47h1" />
<path stroke="#59badd" d="M71 47h1" />
<path stroke="#345764" d="M72 47h1" />
<path stroke="#999898" d="M49 48h1" />
<path stroke="#625856" d="M50 48h1" />
<path stroke="#8c7667" d="M51 48h1" />
<path stroke="#927a69" d="M52 48h1" />
<path stroke="#80685a" d="M53 48h1" />
<path stroke="#5d4e4a" d="M54 48h1" />
<path stroke="#807f7e" d="M55 48h1" />
<path stroke="#465d66" d="M62 48h1" />
<path stroke="#55adcd" d="M63 48h1" />
<path stroke="#324147" d="M64 48h1" />
<path stroke="#415158" d="M65 48h1" />
<path stroke="#686c6e" d="M66 48h1" />
<path stroke="#b1b6b8" d="M67 48h1" />
<path stroke="#949ea2" d="M68 48h1" />
<path stroke="#8499a1" d="M69 48h1" />
<path stroke="#579fba" d="M70 48h1" />
<path stroke="#416774" d="M71 48h1" />
<path stroke="#7d8689" d="M48 49h1" />
<path stroke="#70777a" d="M49 49h1" />
<path stroke="#94837a" d="M50 49h1" />
<path stroke="#886f61" d="M51 49h1" />
<path stroke="#7e6759" d="M52 49h1" />
<path stroke="#705c4e" d="M53 49h1" />
<path stroke="#918f8e" d="M54 49h1" />
<path stroke="#364043" d="M62 49h1" />
<path stroke="#59a4bf" d="M63 49h1" />
<path stroke="#41636e" d="M64 49h1" />
<path stroke="#6b777c" d="M65 49h1" />
<path stroke="#a4acae" d="M66 49h1" />
<path stroke="#899295" d="M67 49h1" />
<path stroke="#8c9ba0" d="M68 49h1" />
<path stroke="#58b1d4" d="M69 49h1" />
<path stroke="#3f6574" d="M70 49h1" />
<path stroke="#252525" d="M28 50h1M70 52h1M41 53h1M85 53h1M66 56h1M65 57h1M68 57h1M11 58h1M51 58h1M82 58h1M9 59h1M89 59h1M58 60h1M70 60h1M96 61h1M48 62h1M23 63h1M42 63h1M56 63h1M62 63h1M95 63h1M30 65h1M84 65h1M86 65h1M7 66h1M19 66h1M45 66h1M75 66h1M91 66h1M52 67h1M60 68h1M77 68h1M8 69h1" />
<path stroke="#939192" d="M47 50h1" />
<path stroke="#737576" d="M48 50h1" />
<path stroke="#8a8481" d="M49 50h1" />
<path stroke="#8c7568" d="M50 50h1" />
<path stroke="#816c60" d="M51 50h1" />
<path stroke="#584c48" d="M52 50h1" />
<path stroke="#888684" d="M53 50h1" />
<path stroke="#3f555d" d="M62 50h1" />
<path stroke="#55899b" d="M63 50h1" />
<path stroke="#508aa0" d="M64 50h1" />
<path stroke="#96a0a4" d="M65 50h1" />
<path stroke="#7d8c91" d="M66 50h1" />
<path stroke="#6a8e9b" d="M67 50h1" />
<path stroke="#539eb9" d="M68 50h1" />
<path stroke="#3f6d7d" d="M69 50h1" />
<path stroke="#989695" d="M46 51h1" />
<path stroke="#6b605e" d="M47 51h1" />
<path stroke="#9f8d81" d="M48 51h1" />
<path stroke="#876f62" d="M49 51h1" />
<path stroke="#756055" d="M50 51h1" />
<path stroke="#5a504e" d="M51 51h1" />
<path stroke="#898887" d="M52 51h1" />
<path stroke="#3c616f" d="M63 51h1" />
<path stroke="#50aaca" d="M64 51h1" />
<path stroke="#52a4c3" d="M65 51h1" />
<path stroke="#51a4c4" d="M66 51h1" />
<path stroke="#4994b0" d="M67 51h1" />
<path stroke="#3c6778" d="M68 51h1" />
<path stroke="#979593" d="M45 52h1" />
<path stroke="#907b69" d="M46 52h1" />
<path stroke="#998272" d="M47 52h1" />
<path stroke="#886f60" d="M48 52h1" />
<path stroke="#7f695d" d="M49 52h1" />
<path stroke="#5e5350" d="M50 52h1" />
<path stroke="#767575" d="M51 52h1" />
<path stroke="#354b54" d="M64 52h1" />
<path stroke="#3b515a" d="M65 52h1" />
<path stroke="#3f6473" d="M66 52h1" />
<path stroke="#344b55" d="M67 52h1" />
<path stroke="#848484" d="M44 53h1" />
<path stroke="#564c4a" d="M45 53h1" />
<path stroke="#867164" d="M46 53h1" />
<path stroke="#8d7566" d="M47 53h1" />
<path stroke="#7e6558" d="M48 53h1" />
<path stroke="#655953" d="M49 53h1" />
<path stroke="#7d7c7c" d="M50 53h1" />
<path stroke="#31454c" d="M66 53h1" />
<path stroke="#727272" d="M43 54h1M37 60h1" />
<path stroke="#58514f" d="M44 54h1" />
<path stroke="#978176" d="M45 54h1" />
<path stroke="#856d5f" d="M46 54h1M43 57h1" />
<path stroke="#766053" d="M47 54h1" />
<path stroke="#7e6b5f" d="M48 54h1" />
<path stroke="#8b8989" d="M49 54h1" />
<path stroke="#818281" d="M42 55h1" />
<path stroke="#534d4b" d="M43 55h1" />
<path stroke="#9a8478" d="M44 55h1" />
<path stroke="#8c7466" d="M45 55h1" />
<path stroke="#7e695e" d="M46 55h1" />
<path stroke="#6b605c" d="M47 55h1" />
<path stroke="#878483" d="M48 55h1" />
<path stroke="#777777" d="M41 56h1M28 73h1" />
<path stroke="#635a58" d="M42 56h1" />
<path stroke="#7c685e" d="M43 56h1" />
<path stroke="#846b5d" d="M44 56h1" />
<path stroke="#796459" d="M45 56h1" />
<path stroke="#5f5755" d="M46 56h1" />
<path stroke="#7c7b7b" d="M47 56h1" />
<path stroke="#797979" d="M40 57h1" />
<path stroke="#685d59" d="M41 57h1" />
<path stroke="#9e8779" d="M42 57h1" />
<path stroke="#776257" d="M44 57h1" />
<path stroke="#605956" d="M45 57h1" />
<path stroke="#737272" d="M46 57h1M34 63h1M37 66h1" />
<path stroke="#747474" d="M39 58h1" />
<path stroke="#4a4441" d="M40 58h1" />
<path stroke="#a08a7b" d="M41 58h1" />
<path stroke="#8b7162" d="M42 58h1" />
<path stroke="#776156" d="M43 58h1" />
<path stroke="#645d59" d="M44 58h1" />
<path stroke="#7c7c7b" d="M45 58h1" />
<path stroke="#6d6d6d" d="M38 59h1M29 68h1" />
<path stroke="#4e4948" d="M39 59h1" />
<path stroke="#877267" d="M40 59h1" />
<path stroke="#856d5e" d="M41 59h1" />
<path stroke="#796357" d="M42 59h1" />
<path stroke="#605a56" d="M43 59h1" />
<path stroke="#6f6e6e" d="M44 59h1M31 66h1" />
<path stroke="#484341" d="M38 60h1" />
<path stroke="#837168" d="M39 60h1" />
<path stroke="#816b5f" d="M40 60h1" />
<path stroke="#766258" d="M41 60h1" />
<path stroke="#655e5b" d="M42 60h1" />
<path stroke="#6c6b6b" d="M43 60h1M30 73h1" />
<path stroke="#6d6d6c" d="M36 61h1M41 62h1M35 68h1" />
<path stroke="#474341" d="M37 61h1" />
<path stroke="#806f65" d="M38 61h1" />
<path stroke="#836b5d" d="M39 61h1" />
<path stroke="#826f64" d="M40 61h1" />
<path stroke="#625c59" d="M41 61h1" />
<path stroke="#717070" d="M42 61h1" />
<path stroke="#1f1f1f" d="M70 61h1M41 67h1" />
<path stroke="#737273" d="M35 62h1" />
<path stroke="#494542" d="M36 62h1" />
<path stroke="#7f6e65" d="M37 62h1" />
<path stroke="#846e62" d="M38 62h1" />
<path stroke="#837065" d="M39 62h1" />
<path stroke="#68625d" d="M40 62h1" />
<path stroke="#433d3b" d="M35 63h1" />
<path stroke="#7f6e64" d="M36 63h1" />
<path stroke="#837066" d="M38 63h1" />
<path stroke="#6a6361" d="M39 63h1" />
<path stroke="#757473" d="M40 63h1" />
<path stroke="#717170" d="M33 64h1" />
<path stroke="#4a4643" d="M34 64h1" />
<path stroke="#7e6c63" d="M35 64h1" />
<path stroke="#816e63" d="M37 64h1" />
<path stroke="#68625e" d="M38 64h1" />
<path stroke="#6d6c6c" d="M39 64h1" />
<path stroke="#6e6d6d" d="M32 65h1" />
<path stroke="#524b47" d="M33 65h1" />
<path stroke="#7c6a60" d="M34 65h1M33 66h1" />
<path stroke="#836c60" d="M35 65h1" />
<path stroke="#7d6b61" d="M36 65h1" />
<path stroke="#6e6965" d="M37 65h1" />
<path stroke="#757574" d="M38 65h1" />
<path stroke="#58514d" d="M32 66h1" />
<path stroke="#82695b" d="M34 66h1" />
<path stroke="#7c695f" d="M35 66h1" />
<path stroke="#68625f" d="M36 66h1" />
<path stroke="#6b6a6a" d="M30 67h1" />
<path stroke="#4a4543" d="M31 67h1" />
<path stroke="#7a695f" d="M32 67h1" />
<path stroke="#816c5f" d="M33 67h1" />
<path stroke="#7e6c61" d="M34 67h1" />
<path stroke="#6b6563" d="M35 67h1" />
<path stroke="#686767" d="M36 67h1M32 71h1" />
<path stroke="#494341" d="M30 68h1" />
<path stroke="#79665c" d="M31 68h1" />
<path stroke="#826a5d" d="M32 68h1" />
<path stroke="#7a685e" d="M33 68h1" />
<path stroke="#6a6562" d="M34 68h1" />
<path stroke="#797978" d="M28 69h1" />
<path stroke="#67605c" d="M29 69h1" />
<path stroke="#78665c" d="M30 69h1" />
<path stroke="#80695d" d="M31 69h1" />
<path stroke="#7b685e" d="M32 69h1" />
<path stroke="#6c6764" d="M33 69h1" />
<path stroke="#676767" d="M34 69h1" />
<path stroke="#346e7c" d="M96 69h1" />
<path stroke="#767676" d="M27 70h1" />
<path stroke="#817c79" d="M28 70h1" />
<path stroke="#756359" d="M29 70h1" />
<path stroke="#7f685c" d="M30 70h1" />
<path stroke="#77645b" d="M31 70h1" />
<path stroke="#716b68" d="M32 70h1" />
<path stroke="#696969" d="M33 70h1" />
<path stroke="#337080" d="M95 70h1" />
<path stroke="#48c4e2" d="M96 70h1" />
<path stroke="#535353" d="M26 71h1" />
<path stroke="#828182" d="M27 71h1" />
<path stroke="#625954" d="M28 71h1" />
<path stroke="#7f685b" d="M29 71h1" />
<path stroke="#74635a" d="M30 71h1" />
<path stroke="#6e6866" d="M31 71h1" />
<path stroke="#2d6c7a" d="M94 71h1" />
<path stroke="#3dbcdc" d="M95 71h1" />
<path stroke="#43d0f2" d="M96 71h1" />
<path stroke="#1c4c59" d="M0 72h1" />
<path stroke="#929292" d="M27 72h1" />
<path stroke="#575453" d="M28 72h1" />
<path stroke="#665d58" d="M29 72h1" />
<path stroke="#74706e" d="M30 72h1" />
<path stroke="#696868" d="M31 72h1" />
<path stroke="#24363b" d="M93 72h1" />
<path stroke="#31a2bd" d="M94 72h1" />
<path stroke="#38c7eb" d="M95 72h1" />
<path stroke="#42d3f5" d="M96 72h1" />
<path stroke="#299bb8" d="M0 73h1" />
<path stroke="#235663" d="M1 73h1" />
<path stroke="#5d5d5d" d="M27 73h1" />
<path stroke="#747575" d="M29 73h1" />
<path stroke="#273d42" d="M93 73h1" />
<path stroke="#32aecb" d="M94 73h1" />
<path stroke="#36c9ed" d="M95 73h1" />
<path stroke="#42d3f7" d="M96 73h1" />
<path stroke="#3ac7eb" d="M0 74h1" />
<path stroke="#38aac4" d="M1 74h1" />
<path stroke="#2b5560" d="M2 74h1" />
<path stroke="#484848" d="M28 74h1" />
<path stroke="#555555" d="M29 74h1" />
<path stroke="#253a40" d="M93 74h1" />
<path stroke="#33aac9" d="M94 74h1" />
<path stroke="#35c8ee" d="M95 74h1" />
<path stroke="#40d6f9" d="M96 74h1" />
<path stroke="#3acef1" d="M0 75h1" />
<path stroke="#3fd0f1" d="M1 75h1" />
<path stroke="#3894a9" d="M2 75h1" />
<path stroke="#263b40" d="M93 75h1" />
<path stroke="#31aecb" d="M94 75h1" />
<path stroke="#41dafe" d="M95 75h1" />
<path stroke="#5bdeff" d="M96 75h1" />
<path stroke="#3dd3f6" d="M0 76h1" />
<path stroke="#42d4f9" d="M1 76h1" />
<path stroke="#3ca3bb" d="M2 76h1" />
<path stroke="#223438" d="M93 76h1" />
<path stroke="#36afcd" d="M94 76h1" />
<path stroke="#50dbff" d="M95 76h1" />
<path stroke="#66e2ff" d="M96 76h1" />
<path stroke="#2fc2e8" d="M0 77h1" />
<path stroke="#32caed" d="M1 77h1" />
<path stroke="#2d93ad" d="M2 77h1" />
<path stroke="#223236" d="M91 77h1M10 91h1" />
<path stroke="#204751" d="M92 77h1" />
<path stroke="#225b69" d="M93 77h1" />
<path stroke="#3cbddc" d="M94 77h1" />
<path stroke="#53ddff" d="M95 77h1M12 93h1M84 94h1M10 95h1" />
<path stroke="#57deff" d="M96 77h1" />
<path stroke="#15aed2" d="M0 78h1" />
<path stroke="#25bbe0" d="M1 78h1" />
<path stroke="#218aa3" d="M2 78h1" />
<path stroke="#223337" d="M90 78h1M85 86h1M90 87h1" />
<path stroke="#207084" d="M91 78h1" />
<path stroke="#1d8ca7" d="M92 78h1" />
<path stroke="#2391ac" d="M93 78h1" />
<path stroke="#42c8e8" d="M94 78h1" />
<path stroke="#54deff" d="M95 78h1" />
<path stroke="#09a0c6" d="M0 79h1" />
<path stroke="#23bce0" d="M1 79h1" />
<path stroke="#248da7" d="M2 79h1" />
<path stroke="#205f6e" d="M90 79h1M84 89h1" />
<path stroke="#1fa1c1" d="M91 79h1" />
<path stroke="#1d88a2" d="M92 79h1" />
<path stroke="#2399b6" d="M93 79h1" />
<path stroke="#40ccef" d="M94 79h1" />
<path stroke="#56ddfe" d="M95 79h1" />
<path stroke="#09a3c8" d="M0 80h1" />
<path stroke="#21bbe0" d="M1 80h1" />
<path stroke="#2790aa" d="M2 80h1" />
<path stroke="#20606f" d="M90 80h1M90 82h1" />
<path stroke="#207e95" d="M91 80h1M81 91h1" />
<path stroke="#205562" d="M92 80h1" />
<path stroke="#2189a3" d="M93 80h1" />
<path stroke="#32c6ea" d="M94 80h1" />
<path stroke="#39d4fa" d="M96 80h1" />
<path stroke="#0da8ce" d="M0 81h1" />
<path stroke="#19b3d9" d="M1 81h1" />
<path stroke="#238ca6" d="M2 81h1" />
<path stroke="#206070" d="M90 81h1" />
<path stroke="#207b92" d="M91 81h1M89 89h1" />
<path stroke="#20505b" d="M92 81h1" />
<path stroke="#1f87a1" d="M93 81h1" />
<path stroke="#19aed3" d="M94 81h1M94 82h1" />
<path stroke="#17b3d9" d="M95 81h1" />
<path stroke="#30cdf3" d="M96 81h1" />
<path stroke="#0ea9cf" d="M0 82h1" />
<path stroke="#059fc5" d="M1 82h1" />
<path stroke="#0b718a" d="M2 82h1" />
<path stroke="#222626" d="M83 82h1" />
<path stroke="#223034" d="M84 82h1M85 84h1" />
<path stroke="#222627" d="M85 82h1M85 87h1" />
<path stroke="#207a90" d="M91 82h1M84 83h1" />
<path stroke="#21505b" d="M92 82h1" />
<path stroke="#1f88a1" d="M93 82h1" />
<path stroke="#18b4da" d="M95 82h1M95 83h1" />
<path stroke="#2cc9ef" d="M96 82h1M85 94h1" />
<path stroke="#009cc2" d="M1 83h1" />
<path stroke="#0b6d85" d="M2 83h1" />
<path stroke="#21393e" d="M83 83h1" />
<path stroke="#213b41" d="M85 83h1M88 85h1" />
<path stroke="#206778" d="M90 83h1" />
<path stroke="#20778c" d="M91 83h1" />
<path stroke="#213c43" d="M92 83h1M92 86h1M89 87h1" />
<path stroke="#1f849d" d="M93 83h1" />
<path stroke="#1ab1d6" d="M94 83h1" />
<path stroke="#31cef4" d="M96 83h1M4 93h1" />
<path stroke="#029ec4" d="M1 84h1" />
<path stroke="#0b6c84" d="M2 84h1M2 85h1" />
<path stroke="#222f32" d="M83 84h1" />
<path stroke="#21535f" d="M84 84h1" />
<path stroke="#222a2c" d="M86 84h1" />
<path stroke="#222d2f" d="M87 84h1" />
<path stroke="#222425" d="M88 84h1M85 88h1" />
<path stroke="#222829" d="M89 84h1M88 89h1" />
<path stroke="#207b91" d="M90 84h2" />
<path stroke="#21363b" d="M92 84h1" />
<path stroke="#20839b" d="M93 84h1" />
<path stroke="#25bce0" d="M94 84h1" />
<path stroke="#25c1e7" d="M95 84h1" />
<path stroke="#10add3" d="M0 85h1" />
<path stroke="#05a1c7" d="M1 85h1" />
<path stroke="#222b2d" d="M85 85h1M87 91h1" />
<path stroke="#206a7c" d="M86 85h1M88 87h1" />
<path stroke="#1f839b" d="M87 85h1M90 85h1" />
<path stroke="#21505c" d="M89 85h1" />
<path stroke="#21444d" d="M91 85h1" />
<path stroke="#21393f" d="M92 85h1M85 91h1" />
<path stroke="#2189a2" d="M93 85h1" />
<path stroke="#2abce0" d="M94 85h1" />
<path stroke="#34cef4" d="M95 85h1" />
<path stroke="#5ddfff" d="M96 85h1M11 95h1" />
<path stroke="#11aed4" d="M0 86h1" />
<path stroke="#18829c" d="M2 86h1" />
<path stroke="#1f92ad" d="M86 86h1M90 90h1" />
<path stroke="#1eb7dd" d="M87 86h1" />
<path stroke="#214c56" d="M88 86h1M83 89h1" />
<path stroke="#214851" d="M89 86h1" />
<path stroke="#214d57" d="M90 86h1" />
<path stroke="#208ca7" d="M93 86h1" />
<path stroke="#29b7da" d="M94 86h1" />
<path stroke="#35cff4" d="M95 86h1" />
<path stroke="#26c2e7" d="M1 87h1" />
<path stroke="#214249" d="M86 87h1" />
<path stroke="#215865" d="M87 87h1" />
<path stroke="#21434b" d="M91 87h1" />
<path stroke="#213a41" d="M92 87h1" />
<path stroke="#2087a0" d="M93 87h1" />
<path stroke="#2ab7d9" d="M94 87h1" />
<path stroke="#33cdf2" d="M95 87h1" />
<path stroke="#28c4e9" d="M1 88h1" />
<path stroke="#258fa9" d="M2 88h1M2 89h1" />
<path stroke="#214750" d="M86 88h1" />
<path stroke="#21353a" d="M87 88h1" />
<path stroke="#205c6a" d="M88 88h1M82 91h1" />
<path stroke="#20697b" d="M89 88h1" />
<path stroke="#1f8ca6" d="M90 88h1" />
<path stroke="#1f829a" d="M91 88h1M86 89h1" />
<path stroke="#21383d" d="M92 88h1M88 90h1" />
<path stroke="#217f96" d="M93 88h1" />
<path stroke="#2bb7d8" d="M94 88h1" />
<path stroke="#33ccf1" d="M95 88h1" />
<path stroke="#3bd8fe" d="M96 88h1M96 91h1M7 94h1M2 95h1" />
<path stroke="#25c1e6" d="M1 89h1" />
<path stroke="#213135" d="M79 89h1M7 91h1" />
<path stroke="#21454e" d="M80 89h1" />
<path stroke="#21444c" d="M81 89h1" />
<path stroke="#214852" d="M82 89h1" />
<path stroke="#207184" d="M85 89h1" />
<path stroke="#21454d" d="M87 89h1" />
<path stroke="#207c92" d="M91 89h1M83 90h1" />
<path stroke="#222c2f" d="M92 89h1" />
<path stroke="#20859d" d="M93 89h1" />
<path stroke="#2cbde1" d="M94 89h1" />
<path stroke="#34ccf1" d="M95 89h1" />
<path stroke="#27c3e8" d="M1 90h1" />
<path stroke="#258ba4" d="M2 90h1" />
<path stroke="#232d30" d="M78 90h1" />
<path stroke="#1a6172" d="M79 90h1" />
<path stroke="#1e8ba6" d="M80 90h1" />
<path stroke="#1f7a90" d="M81 90h1" />
<path stroke="#1f7184" d="M82 90h1" />
<path stroke="#1f93b0" d="M84 90h1" />
<path stroke="#1f869e" d="M85 90h1" />
<path stroke="#213e45" d="M86 90h1" />
<path stroke="#208198" d="M89 90h1" />
<path stroke="#205e6d" d="M91 90h1" />
<path stroke="#204f5a" d="M92 90h1" />
<path stroke="#20a2c1" d="M93 90h1" />
<path stroke="#2fc5e9" d="M94 90h1" />
<path stroke="#38d1f6" d="M95 90h1" />
<path stroke="#23bfe4" d="M1 91h1" />
<path stroke="#2393ae" d="M2 91h1" />
<path stroke="#243438" d="M3 91h1M14 91h4" />
<path stroke="#233539" d="M4 91h1" />
<path stroke="#233337" d="M5 91h2" />
<path stroke="#1f2f33" d="M8 91h2" />
<path stroke="#283539" d="M11 91h1" />
<path stroke="#273539" d="M12 91h1M73 92h1" />
<path stroke="#253539" d="M13 91h1M18 91h1" />
<path stroke="#253133" d="M19 91h1" />
<path stroke="#2a3538" d="M76 91h1" />
<path stroke="#353a3b" d="M77 91h1" />
<path stroke="#2d6f7f" d="M78 91h1" />
<path stroke="#1e8da9" d="M79 91h1" />
<path stroke="#2096b4" d="M80 91h1" />
<path stroke="#205865" d="M83 91h1" />
<path stroke="#214751" d="M84 91h1" />
<path stroke="#222729" d="M86 91h1" />
<path stroke="#222d30" d="M88 91h1" />
<path stroke="#213338" d="M89 91h1" />
<path stroke="#213337" d="M90 91h1" />
<path stroke="#1f6272" d="M91 91h1" />
<path stroke="#17a0c2" d="M92 91h1" />
<path stroke="#1bafd3" d="M93 91h1" />
<path stroke="#34c4e7" d="M94 91h1" />
<path stroke="#41d7fc" d="M95 91h1" />
<path stroke="#1cb9df" d="M1 92h1M1 94h1M88 94h1" />
<path stroke="#20b3d6" d="M2 92h1" />
<path stroke="#2ea7c4" d="M3 92h1" />
<path stroke="#2aa2c0" d="M4 92h1" />
<path stroke="#2b9fbb" d="M5 92h1" />
<path stroke="#299cb8" d="M6 92h1" />
<path stroke="#188ca7" d="M7 92h1" />
<path stroke="#0f829e" d="M8 92h1" />
<path stroke="#1184a0" d="M9 92h1" />
<path stroke="#269ab5" d="M10 92h1" />
<path stroke="#4cadc4" d="M11 92h1" />
<path stroke="#44abc4" d="M12 92h1" />
<path stroke="#3aa9c4" d="M13 92h1" />
<path stroke="#31a4c0" d="M14 92h1" />
<path stroke="#2fa2be" d="M15 92h2" />
<path stroke="#33a7c3" d="M17 92h1" />
<path stroke="#36abc8" d="M18 92h1" />
<path stroke="#3b98ae" d="M19 92h1" />
<path stroke="#2a5b67" d="M20 92h1" />
<path stroke="#2d3a3e" d="M74 92h1" />
<path stroke="#334b51" d="M75 92h1" />
<path stroke="#5fadc1" d="M76 92h1" />
<path stroke="#96bdc6" d="M77 92h1" />
<path stroke="#82ccde" d="M78 92h1" />
<path stroke="#5acce9" d="M79 92h1" />
<path stroke="#32c0e2" d="M80 92h1" />
<path stroke="#24abcd" d="M81 92h1" />
<path stroke="#239bb8" d="M82 92h1" />
<path stroke="#217d94" d="M83 92h1" />
<path stroke="#21778c" d="M84 92h1" />
<path stroke="#23778b" d="M85 92h1" />
<path stroke="#247f95" d="M86 92h1" />
<path stroke="#237e94" d="M87 92h1" />
<path stroke="#22788c" d="M88 92h1" />
<path stroke="#226e81" d="M89 92h1" />
<path stroke="#21788d" d="M90 92h1" />
<path stroke="#21a1c0" d="M91 92h1" />
<path stroke="#20b7db" d="M92 92h1" />
<path stroke="#27b6d9" d="M93 92h1" />
<path stroke="#3dcef2" d="M94 92h1" />
<path stroke="#43d9fd" d="M95 92h1" />
<path stroke="#35d2f8" d="M5 93h1M81 93h1" />
<path stroke="#34d1f7" d="M6 93h1" />
<path stroke="#51ddff" d="M11 93h1M11 94h1" />
<path stroke="#4fddff" d="M13 93h1M10 94h1" />
<path stroke="#3dd7fe" d="M18 93h1" />
<path stroke="#46dafe" d="M19 93h1" />
<path stroke="#36b9d9" d="M20 93h1" />
<path stroke="#256270" d="M21 93h1" />
<path stroke="#30788a" d="M72 93h1" />
<path stroke="#3dafca" d="M73 93h1" />
<path stroke="#50bad3" d="M74 93h1" />
<path stroke="#4fbedb" d="M75 93h1" />
<path stroke="#58dfff" d="M76 93h1" />
<path stroke="#7ae4ff" d="M77 93h1" />
<path stroke="#a7eeff" d="M78 93h1" />
<path stroke="#9eeafd" d="M79 93h1" />
<path stroke="#5ee0ff" d="M80 93h1" />
<path stroke="#37d1f8" d="M82 93h1" />
<path stroke="#36cdf2" d="M83 93h1" />
<path stroke="#3bd5fb" d="M84 93h1" />
<path stroke="#47d9fc" d="M85 93h1" />
<path stroke="#4ad8fb" d="M86 93h1" />
<path stroke="#4cd7f9" d="M87 93h1" />
<path stroke="#3cd3f8" d="M88 93h1" />
<path stroke="#34cdf2" d="M89 93h1" />
<path stroke="#2eafcf" d="M90 93h1" />
<path stroke="#2b6b7b" d="M91 93h1" />
<path stroke="#477682" d="M92 93h1" />
<path stroke="#81d0e3" d="M93 93h1" />
<path stroke="#51dcfd" d="M94 93h1" />
<path stroke="#24bfe5" d="M0 94h1" />
<path stroke="#55deff" d="M6 94h1M12 94h1" />
<path stroke="#2fccf2" d="M8 94h1" />
<path stroke="#63e1ff" d="M13 94h1" />
<path stroke="#5fe0ff" d="M14 94h1M9 95h1" />
<path stroke="#45dbff" d="M15 94h1" />
<path stroke="#48daff" d="M18 94h1" />
<path stroke="#40daff" d="M19 94h1" />
<path stroke="#32ccf1" d="M20 94h1" />
<path stroke="#29a6c4" d="M21 94h1" />
<path stroke="#296674" d="M22 94h1" />
<path stroke="#2f7789" d="M71 94h1" />
<path stroke="#31b6d6" d="M72 94h1" />
<path stroke="#2ebde1" d="M73 94h1" />
<path stroke="#2fc2e6" d="M74 94h1" />
<path stroke="#2dc3e6" d="M75 94h1" />
<path stroke="#2dc0e6" d="M76 94h1" />
<path stroke="#27c0e4" d="M77 94h1" />
<path stroke="#22bce1" d="M78 94h1" />
<path stroke="#1fb9de" d="M79 94h1" />
<path stroke="#3bd5fa" d="M80 94h1" />
<path stroke="#6ce2ff" d="M81 94h1" />
<path stroke="#58deff" d="M82 94h1" />
<path stroke="#5cdeff" d="M83 94h1" />
<path stroke="#0c9dc0" d="M90 94h1" />
<path stroke="#0c819e" d="M91 94h1" />
<path stroke="#158fac" d="M92 94h1" />
<path stroke="#18b0d4" d="M93 94h1" />
<path stroke="#2fcaf0" d="M0 95h1" />
<path stroke="#3bd6fc" d="M1 95h1" />
<path stroke="#15afd4" d="M19 95h1" />
<path stroke="#20badf" d="M20 95h1M81 95h1" />
<path stroke="#41d8fb" d="M21 95h1" />
<path stroke="#40bbd8" d="M22 95h1" />
<path stroke="#2f6977" d="M23 95h1" />
<path stroke="#3c8091" d="M70 95h1" />
<path stroke="#4acae9" d="M71 95h1" />
<path stroke="#3ec9eb" d="M72 95h1" />
<path stroke="#2ebcdf" d="M73 95h1" />
<path stroke="#25b4d8" d="M74 95h1" />
<path stroke="#24b7db" d="M75 95h1" />
<path stroke="#23b6dc" d="M76 95h1" />
<path stroke="#1db2d8" d="M77 95h1" />
<path stroke="#0aa3c7" d="M78 95h1" />
<path stroke="#0097bc" d="M79 95h1" />
<path stroke="#0fa9ce" d="M80 95h1" />
<path stroke="#1db8de" d="M82 95h1" />
<path stroke="#2ac5eb" d="M83 95h1" />
<path stroke="#0ba8ce" d="M86 95h1" />
<path stroke="#09a6cc" d="M87 95h1" />
<path stroke="#0aa7cd" d="M88 95h1" />
<path stroke="#05a2c8" d="M89 95h1" />
<path stroke="#008eb0" d="M91 95h1" />
<path stroke="#0081a0" d="M92 95h1" />
<path stroke="#006f8a" d="M93 95h1" />
<path stroke="#0086a6" d="M94 95h1" />
</svg>